# MagicaVoxel @ Ephtracy

# group
g Char004

# material
mtllib Char004.mtl
usemtl palette

# normals
vn -1 0 0
vn 1 0 0
vn 0 0 1
vn 0 0 -1
vn 0 -1 0
vn 0 1 0

# texcoords
vt 0.0214844 0.5
vt 0.0605469 0.5
vt 0.0957031 0.5

# verts
v -6 10 -0
v -6 10 -2
v -6 12 -0
v -6 12 -2
v -5 12 -0
v -5 12 -2
v -5 19 -0
v -5 19 -2
v -4 10 -0
v -4 10 -1
v -4 11 -0
v -4 11 -1
v -4 19 -0
v -4 19 -2
v -4 20 -0
v -4 20 -2
v -3 0 2
v -3 0 -0
v -3 0 -1
v -3 0 -2
v -3 1 2
v -3 1 1
v -3 1 -0
v -3 1 -1
v -3 2 1
v -3 2 -0
v -3 2 -2
v -3 5 1
v -3 5 -0
v -3 5 -1
v -3 5 -2
v -3 7 1
v -3 7 -1
v -3 7 -2
v -3 10 -0
v -3 10 -1
v -3 11 -1
v -3 11 -2
v -3 16 2
v -3 16 1
v -3 18 2
v -3 18 1
v -3 18 -0
v -3 20 1
v -3 20 -0
v -1 20 -0
v -1 20 -2
v -1 21 -0
v -1 21 -2
v 1 0 2
v 1 0 -0
v 1 0 -1
v 1 0 -2
v 1 1 2
v 1 1 1
v 1 1 -0
v 1 1 -1
v 1 2 1
v 1 2 -0
v 1 2 -2
v 1 5 1
v 1 5 -0
v 1 5 -1
v 1 5 -2
v 1 7 1
v 1 7 -0
v 1 7 -1
v 1 10 -0
v 1 10 -1
v 5 10 -0
v 5 10 -2
v 5 11 -0
v 5 11 -2
v -5 10 -0
v -5 10 -2
v -5 11 -0
v -5 11 -2
v -1 0 2
v -1 0 -0
v -1 0 -1
v -1 0 -2
v -1 1 2
v -1 1 1
v -1 1 -0
v -1 1 -1
v -1 2 1
v -1 2 -0
v -1 2 -2
v -1 5 1
v -1 5 -0
v -1 5 -1
v -1 5 -2
v -1 7 1
v -1 7 -0
v -1 7 -1
v -1 10 -0
v -1 10 -1
v 1 20 -0
v 1 20 -2
v 1 21 -0
v 1 21 -2
v 3 0 2
v 3 0 -0
v 3 0 -1
v 3 0 -2
v 3 1 2
v 3 1 1
v 3 1 -0
v 3 1 -1
v 3 2 1
v 3 2 -0
v 3 2 -2
v 3 5 1
v 3 5 -0
v 3 5 -1
v 3 5 -2
v 3 7 1
v 3 7 -1
v 3 7 -2
v 3 10 -0
v 3 10 -1
v 3 11 -1
v 3 11 -2
v 3 16 2
v 3 16 1
v 3 18 2
v 3 18 1
v 3 18 -0
v 3 20 1
v 3 20 -0
v 4 10 -0
v 4 10 -1
v 4 11 -0
v 4 11 -1
v 4 19 -0
v 4 19 -2
v 4 20 -0
v 4 20 -2
v 5 12 -0
v 5 12 -2
v 5 19 -0
v 5 19 -2
v 6 10 -0
v 6 10 -2
v 6 12 -0
v 6 12 -2
v -3 0 2
v -3 1 2
v -3 16 2
v -3 18 2
v -1 0 2
v -1 1 2
v 1 0 2
v 1 1 2
v 3 0 2
v 3 1 2
v 3 16 2
v 3 18 2
v -3 1 1
v -3 2 1
v -3 5 1
v -3 7 1
v -3 16 1
v -3 18 1
v -3 20 1
v -2 18 1
v -2 20 1
v -1 1 1
v -1 2 1
v -1 5 1
v -1 7 1
v -1 18 1
v -1 20 1
v 1 1 1
v 1 2 1
v 1 5 1
v 1 7 1
v 1 18 1
v 1 20 1
v 2 18 1
v 2 20 1
v 3 1 1
v 3 2 1
v 3 5 1
v 3 7 1
v 3 16 1
v 3 18 1
v 3 20 1
v -6 10 -0
v -6 12 -0
v -5 10 -0
v -5 11 -0
v -5 12 -0
v -5 19 -0
v -4 10 -0
v -4 11 -0
v -4 19 -0
v -4 20 -0
v -3 2 -0
v -3 5 -0
v -3 10 -0
v -3 18 -0
v -3 20 -0
v -1 2 -0
v -1 5 -0
v -1 20 -0
v -1 21 -0
v 1 2 -0
v 1 5 -0
v 1 20 -0
v 1 21 -0
v 3 2 -0
v 3 5 -0
v 3 10 -0
v 3 18 -0
v 3 20 -0
v 4 10 -0
v 4 11 -0
v 4 19 -0
v 4 20 -0
v 5 10 -0
v 5 11 -0
v 5 12 -0
v 5 19 -0
v 6 10 -0
v 6 12 -0
v -3 0 -1
v -3 1 -1
v -1 0 -1
v -1 1 -1
v -1 7 -1
v -1 10 -1
v 1 0 -1
v 1 1 -1
v 1 7 -1
v 1 10 -1
v 3 0 -1
v 3 1 -1
v -3 0 -0
v -3 1 -0
v -1 0 -0
v -1 1 -0
v -1 7 -0
v -1 10 -0
v 1 0 -0
v 1 1 -0
v 1 7 -0
v 1 10 -0
v 3 0 -0
v 3 1 -0
v -4 10 -1
v -4 11 -1
v -3 5 -1
v -3 7 -1
v -3 10 -1
v -3 11 -1
v -1 5 -1
v -1 7 -1
v 1 5 -1
v 1 7 -1
v 3 5 -1
v 3 7 -1
v 3 10 -1
v 3 11 -1
v 4 10 -1
v 4 11 -1
v -6 10 -2
v -6 12 -2
v -5 10 -2
v -5 11 -2
v -5 12 -2
v -5 19 -2
v -4 19 -2
v -4 20 -2
v -3 0 -2
v -3 2 -2
v -3 5 -2
v -3 7 -2
v -3 11 -2
v -3 18 -2
v -2 18 -2
v -2 20 -2
v -1 0 -2
v -1 2 -2
v -1 5 -2
v -1 18 -2
v -1 20 -2
v -1 21 -2
v 1 0 -2
v 1 2 -2
v 1 5 -2
v 1 18 -2
v 1 20 -2
v 1 21 -2
v 2 18 -2
v 2 20 -2
v 3 0 -2
v 3 2 -2
v 3 5 -2
v 3 7 -2
v 3 11 -2
v 3 18 -2
v 4 19 -2
v 4 20 -2
v 5 10 -2
v 5 11 -2
v 5 12 -2
v 5 19 -2
v 6 10 -2
v 6 12 -2
v -3 0 2
v -1 0 2
v 1 0 2
v 3 0 2
v -3 0 -0
v -1 0 -0
v 1 0 -0
v 3 0 -0
v -3 0 -1
v -1 0 -1
v 1 0 -1
v 3 0 -1
v -3 0 -2
v -1 0 -2
v 1 0 -2
v 3 0 -2
v -3 1 -0
v -1 1 -0
v 1 1 -0
v 3 1 -0
v -3 1 -1
v -1 1 -1
v 1 1 -1
v 3 1 -1
v -3 5 1
v -1 5 1
v 1 5 1
v 3 5 1
v -3 5 -0
v -1 5 -0
v 1 5 -0
v 3 5 -0
v -1 7 1
v 1 7 1
v -1 7 -0
v 1 7 -0
v -3 7 -1
v -1 7 -1
v 1 7 -1
v 3 7 -1
v -3 7 -2
v 3 7 -2
v -6 10 -0
v -5 10 -0
v -4 10 -0
v -3 10 -0
v -1 10 -0
v 1 10 -0
v 3 10 -0
v 4 10 -0
v 5 10 -0
v 6 10 -0
v -4 10 -1
v -3 10 -1
v -1 10 -1
v 1 10 -1
v 3 10 -1
v 4 10 -1
v -6 10 -2
v -5 10 -2
v 5 10 -2
v 6 10 -2
v -5 11 -0
v -4 11 -0
v 4 11 -0
v 5 11 -0
v -4 11 -1
v -3 11 -1
v 3 11 -1
v 4 11 -1
v -5 11 -2
v -3 11 -2
v 3 11 -2
v 5 11 -2
v -3 16 2
v 3 16 2
v -3 16 1
v 3 16 1
v -3 1 2
v -1 1 2
v 1 1 2
v 3 1 2
v -3 1 1
v -1 1 1
v 1 1 1
v 3 1 1
v -3 2 1
v -1 2 1
v 1 2 1
v 3 2 1
v -3 2 -0
v -1 2 -0
v 1 2 -0
v 3 2 -0
v -3 5 -1
v -1 5 -1
v 1 5 -1
v 3 5 -1
v -3 5 -2
v -1 5 -2
v 1 5 -2
v 3 5 -2
v -6 12 -0
v -5 12 -0
v 5 12 -0
v 6 12 -0
v -6 12 -2
v -5 12 -2
v 5 12 -2
v 6 12 -2
v -3 18 2
v 3 18 2
v -3 18 1
v -2 18 1
v -1 18 1
v 1 18 1
v 2 18 1
v 3 18 1
v -5 19 -0
v -4 19 -0
v 4 19 -0
v 5 19 -0
v -5 19 -2
v -4 19 -2
v 4 19 -2
v 5 19 -2
v -3 20 1
v -2 20 1
v -1 20 1
v 1 20 1
v 2 20 1
v 3 20 1
v -4 20 -0
v -3 20 -0
v -1 20 -0
v 1 20 -0
v 3 20 -0
v 4 20 -0
v -4 20 -2
v -2 20 -2
v -1 20 -2
v 1 20 -2
v 2 20 -2
v 4 20 -2
v -1 21 -0
v 1 21 -0
v -1 21 -2
v 1 21 -2

# faces
f 3/2/1 2/2/1 1/2/1
f 4/2/1 2/2/1 3/2/1
f 7/2/1 6/2/1 5/2/1
f 8/2/1 6/2/1 7/2/1
f 11/2/1 10/2/1 9/2/1
f 12/2/1 10/2/1 11/2/1
f 15/2/1 14/2/1 13/2/1
f 16/2/1 14/2/1 15/2/1
f 21/3/1 18/3/1 17/3/1
f 22/3/1 18/3/1 21/3/1
f 23/3/1 18/3/1 22/3/1
f 24/3/1 20/3/1 19/3/1
f 25/2/1 23/2/1 22/2/1
f 26/3/1 24/3/1 23/3/1
f 26/2/1 23/2/1 25/2/1
f 27/3/1 20/3/1 24/3/1
f 27/3/1 24/3/1 26/3/1
f 29/2/1 27/2/1 26/2/1
f 30/2/1 27/2/1 29/2/1
f 31/2/1 27/2/1 30/2/1
f 32/2/1 29/2/1 28/2/1
f 32/2/1 30/2/1 29/2/1
f 33/2/1 30/2/1 32/2/1
f 35/1/1 33/1/1 32/1/1
f 35/1/1 34/1/1 33/1/1
f 36/1/1 34/1/1 35/1/1
f 37/1/1 34/1/1 36/1/1
f 38/1/1 34/1/1 37/1/1
f 40/1/1 35/1/1 32/1/1
f 41/1/1 40/1/1 39/1/1
f 42/1/1 35/1/1 40/1/1
f 42/1/1 40/1/1 41/1/1
f 43/1/1 35/1/1 42/1/1
f 44/2/1 43/2/1 42/2/1
f 45/2/1 43/2/1 44/2/1
f 48/2/1 47/2/1 46/2/1
f 49/2/1 47/2/1 48/2/1
f 54/3/1 51/3/1 50/3/1
f 55/3/1 51/3/1 54/3/1
f 56/3/1 51/3/1 55/3/1
f 57/3/1 53/3/1 52/3/1
f 58/2/1 56/2/1 55/2/1
f 59/3/1 57/3/1 56/3/1
f 59/2/1 56/2/1 58/2/1
f 60/3/1 53/3/1 57/3/1
f 60/3/1 57/3/1 59/3/1
f 62/2/1 60/2/1 59/2/1
f 63/2/1 60/2/1 62/2/1
f 64/2/1 60/2/1 63/2/1
f 65/2/1 62/2/1 61/2/1
f 65/2/1 63/2/1 62/2/1
f 66/2/1 63/2/1 65/2/1
f 67/2/1 63/2/1 66/2/1
f 68/2/1 67/2/1 66/2/1
f 69/2/1 67/2/1 68/2/1
f 72/2/1 71/2/1 70/2/1
f 73/2/1 71/2/1 72/2/1
f 74/2/2 75/2/2 76/2/2
f 76/2/2 75/2/2 77/2/2
f 78/3/2 79/3/2 82/3/2
f 82/3/2 79/3/2 83/3/2
f 83/3/2 79/3/2 84/3/2
f 80/3/2 81/3/2 85/3/2
f 83/2/2 84/2/2 86/2/2
f 84/3/2 85/3/2 87/3/2
f 86/2/2 84/2/2 87/2/2
f 85/3/2 81/3/2 88/3/2
f 87/3/2 85/3/2 88/3/2
f 87/2/2 88/2/2 90/2/2
f 90/2/2 88/2/2 91/2/2
f 91/2/2 88/2/2 92/2/2
f 89/2/2 90/2/2 93/2/2
f 90/2/2 91/2/2 93/2/2
f 93/2/2 91/2/2 94/2/2
f 94/2/2 91/2/2 95/2/2
f 94/2/2 95/2/2 96/2/2
f 96/2/2 95/2/2 97/2/2
f 98/2/2 99/2/2 100/2/2
f 100/2/2 99/2/2 101/2/2
f 102/3/2 103/3/2 106/3/2
f 106/3/2 103/3/2 107/3/2
f 107/3/2 103/3/2 108/3/2
f 104/3/2 105/3/2 109/3/2
f 107/2/2 108/2/2 110/2/2
f 108/3/2 109/3/2 111/3/2
f 110/2/2 108/2/2 111/2/2
f 109/3/2 105/3/2 112/3/2
f 111/3/2 109/3/2 112/3/2
f 111/2/2 112/2/2 114/2/2
f 114/2/2 112/2/2 115/2/2
f 115/2/2 112/2/2 116/2/2
f 113/2/2 114/2/2 117/2/2
f 114/2/2 115/2/2 117/2/2
f 117/2/2 115/2/2 118/2/2
f 117/1/2 118/1/2 120/1/2
f 118/1/2 119/1/2 120/1/2
f 120/1/2 119/1/2 121/1/2
f 121/1/2 119/1/2 122/1/2
f 122/1/2 119/1/2 123/1/2
f 117/1/2 120/1/2 125/1/2
f 124/1/2 125/1/2 126/1/2
f 125/1/2 120/1/2 127/1/2
f 126/1/2 125/1/2 127/1/2
f 127/1/2 120/1/2 128/1/2
f 127/2/2 128/2/2 129/2/2
f 129/2/2 128/2/2 130/2/2
f 131/2/2 132/2/2 133/2/2
f 133/2/2 132/2/2 134/2/2
f 135/2/2 136/2/2 137/2/2
f 137/2/2 136/2/2 138/2/2
f 139/2/2 140/2/2 141/2/2
f 141/2/2 140/2/2 142/2/2
f 143/2/2 144/2/2 145/2/2
f 145/2/2 144/2/2 146/2/2
f 151/3/3 148/3/3 147/3/3
f 152/3/3 148/3/3 151/3/3
f 155/3/3 154/3/3 153/3/3
f 156/3/3 154/3/3 155/3/3
f 157/1/3 150/1/3 149/1/3
f 158/1/3 150/1/3 157/1/3
f 166/2/3 165/2/3 164/2/3
f 167/2/3 165/2/3 166/2/3
f 168/2/3 160/2/3 159/2/3
f 169/2/3 160/2/3 168/2/3
f 170/2/3 162/2/3 161/2/3
f 171/1/3 163/1/3 162/1/3
f 171/2/3 162/2/3 170/2/3
f 172/1/3 167/1/3 166/1/3
f 173/1/3 167/1/3 172/1/3
f 177/1/3 163/1/3 171/1/3
f 178/2/3 173/2/3 172/2/3
f 179/2/3 173/2/3 178/2/3
f 180/1/3 179/1/3 178/1/3
f 181/1/3 179/1/3 180/1/3
f 182/2/3 175/2/3 174/2/3
f 183/2/3 175/2/3 182/2/3
f 184/2/3 177/2/3 176/2/3
f 185/1/3 163/1/3 177/1/3
f 185/2/3 177/2/3 184/2/3
f 186/1/3 163/1/3 185/1/3
f 187/2/3 181/2/3 180/2/3
f 188/2/3 181/2/3 187/2/3
f 191/2/3 190/2/3 189/2/3
f 192/2/3 190/2/3 191/2/3
f 193/2/3 190/2/3 192/2/3
f 196/2/3 194/2/3 193/2/3
f 196/2/3 193/2/3 192/2/3
f 197/2/3 194/2/3 196/2/3
f 201/2/3 196/2/3 195/2/3
f 201/2/3 197/2/3 196/2/3
f 201/2/3 198/2/3 197/2/3
f 202/2/3 198/2/3 201/2/3
f 203/2/3 198/2/3 202/2/3
f 204/2/3 200/2/3 199/2/3
f 205/2/3 200/2/3 204/2/3
f 210/2/3 207/2/3 206/2/3
f 211/2/3 207/2/3 210/2/3
f 212/2/3 209/2/3 208/2/3
f 213/2/3 209/2/3 212/2/3
f 217/2/3 216/2/3 215/2/3
f 217/2/3 215/2/3 214/2/3
f 218/2/3 216/2/3 217/2/3
f 219/2/3 216/2/3 218/2/3
f 220/2/3 216/2/3 219/2/3
f 222/2/3 219/2/3 218/2/3
f 223/2/3 219/2/3 222/2/3
f 224/2/3 219/2/3 223/2/3
f 225/2/3 222/2/3 221/2/3
f 225/2/3 223/2/3 222/2/3
f 226/2/3 223/2/3 225/2/3
f 229/3/3 228/3/3 227/3/3
f 230/3/3 228/3/3 229/3/3
f 235/1/3 232/1/3 231/1/3
f 236/1/3 232/1/3 235/1/3
f 237/3/3 234/3/3 233/3/3
f 238/3/3 234/3/3 237/3/3
f 239/3/4 240/3/4 241/3/4
f 241/3/4 240/3/4 242/3/4
f 243/1/4 244/1/4 247/1/4
f 247/1/4 244/1/4 248/1/4
f 245/3/4 246/3/4 249/3/4
f 249/3/4 246/3/4 250/3/4
f 251/2/4 252/2/4 255/2/4
f 255/2/4 252/2/4 256/2/4
f 253/2/4 254/2/4 257/2/4
f 257/2/4 254/2/4 258/2/4
f 259/2/4 260/2/4 261/2/4
f 261/2/4 260/2/4 262/2/4
f 263/2/4 264/2/4 265/2/4
f 265/2/4 264/2/4 266/2/4
f 267/2/4 268/2/4 269/2/4
f 269/2/4 268/2/4 270/2/4
f 270/2/4 268/2/4 271/2/4
f 271/2/4 272/2/4 273/2/4
f 270/2/4 271/2/4 273/2/4
f 270/2/4 273/2/4 279/2/4
f 273/2/4 274/2/4 279/2/4
f 279/2/4 274/2/4 280/2/4
f 278/1/4 279/1/4 281/1/4
f 280/2/4 274/2/4 281/2/4
f 279/1/4 280/1/4 281/1/4
f 281/2/4 274/2/4 282/2/4
f 275/3/4 276/3/4 283/3/4
f 276/2/4 277/2/4 284/2/4
f 283/3/4 276/3/4 284/3/4
f 284/2/4 277/2/4 285/2/4
f 278/1/4 281/1/4 286/1/4
f 281/1/4 282/1/4 286/1/4
f 286/1/4 282/1/4 287/1/4
f 286/2/4 287/2/4 292/2/4
f 287/2/4 288/2/4 292/2/4
f 278/1/4 286/1/4 292/1/4
f 292/2/4 288/2/4 293/2/4
f 293/2/4 288/2/4 294/2/4
f 278/1/4 292/1/4 295/1/4
f 292/1/4 293/1/4 295/1/4
f 295/1/4 293/1/4 296/1/4
f 289/3/4 290/3/4 297/3/4
f 290/2/4 291/2/4 298/2/4
f 297/3/4 290/3/4 298/3/4
f 298/2/4 291/2/4 299/2/4
f 278/1/4 295/1/4 300/1/4
f 300/1/4 295/1/4 301/1/4
f 295/2/4 296/2/4 302/2/4
f 301/1/4 295/1/4 302/1/4
f 302/2/4 296/2/4 303/2/4
f 301/2/4 302/2/4 303/2/4
f 303/2/4 296/2/4 304/2/4
f 301/2/4 303/2/4 306/2/4
f 306/2/4 303/2/4 307/2/4
f 307/2/4 303/2/4 308/2/4
f 305/2/4 306/2/4 309/2/4
f 306/2/4 307/2/4 309/2/4
f 309/2/4 307/2/4 310/2/4
f 315/3/5 312/3/5 311/3/5
f 316/3/5 312/3/5 315/3/5
f 317/3/5 314/3/5 313/3/5
f 318/3/5 314/3/5 317/3/5
f 323/3/5 320/3/5 319/3/5
f 324/3/5 320/3/5 323/3/5
f 325/3/5 322/3/5 321/3/5
f 326/3/5 322/3/5 325/3/5
f 331/3/5 328/3/5 327/3/5
f 332/3/5 328/3/5 331/3/5
f 333/3/5 330/3/5 329/3/5
f 334/3/5 330/3/5 333/3/5
f 339/2/5 336/2/5 335/2/5
f 340/2/5 336/2/5 339/2/5
f 341/2/5 338/2/5 337/2/5
f 342/2/5 338/2/5 341/2/5
f 345/1/5 344/1/5 343/1/5
f 346/1/5 344/1/5 345/1/5
f 351/1/5 349/1/5 348/1/5
f 351/1/5 350/1/5 349/1/5
f 351/1/5 348/1/5 347/1/5
f 352/1/5 350/1/5 351/1/5
f 363/2/5 356/2/5 355/2/5
f 364/2/5 356/2/5 363/2/5
f 365/3/5 358/3/5 357/3/5
f 366/3/5 358/3/5 365/3/5
f 367/2/5 360/2/5 359/2/5
f 368/2/5 360/2/5 367/2/5
f 369/2/5 354/2/5 353/2/5
f 370/2/5 354/2/5 369/2/5
f 371/2/5 362/2/5 361/2/5
f 372/2/5 362/2/5 371/2/5
f 377/2/5 374/2/5 373/2/5
f 380/2/5 376/2/5 375/2/5
f 381/2/5 378/2/5 377/2/5
f 381/2/5 377/2/5 373/2/5
f 382/2/5 378/2/5 381/2/5
f 383/2/5 380/2/5 379/2/5
f 384/2/5 376/2/5 380/2/5
f 384/2/5 380/2/5 383/2/5
f 387/1/5 386/1/5 385/1/5
f 388/1/5 386/1/5 387/1/5
f 389/3/6 390/3/6 393/3/6
f 393/3/6 390/3/6 394/3/6
f 391/3/6 392/3/6 395/3/6
f 395/3/6 392/3/6 396/3/6
f 397/2/6 398/2/6 401/2/6
f 401/2/6 398/2/6 402/2/6
f 399/2/6 400/2/6 403/2/6
f 403/2/6 400/2/6 404/2/6
f 405/2/6 406/2/6 409/2/6
f 409/2/6 406/2/6 410/2/6
f 407/2/6 408/2/6 411/2/6
f 411/2/6 408/2/6 412/2/6
f 413/2/6 414/2/6 417/2/6
f 417/2/6 414/2/6 418/2/6
f 415/2/6 416/2/6 419/2/6
f 419/2/6 416/2/6 420/2/6
f 421/1/6 422/1/6 423/1/6
f 423/1/6 422/1/6 424/1/6
f 424/1/6 422/1/6 425/1/6
f 425/1/6 422/1/6 426/1/6
f 426/1/6 422/1/6 427/1/6
f 427/1/6 422/1/6 428/1/6
f 429/2/6 430/2/6 433/2/6
f 433/2/6 430/2/6 434/2/6
f 431/2/6 432/2/6 435/2/6
f 435/2/6 432/2/6 436/2/6
f 437/2/6 438/2/6 444/2/6
f 438/1/6 439/1/6 445/1/6
f 439/2/6 440/2/6 445/2/6
f 440/1/6 441/1/6 446/1/6
f 445/2/6 440/2/6 446/2/6
f 441/2/6 442/2/6 447/2/6
f 443/2/6 444/2/6 449/2/6
f 444/2/6 438/2/6 450/2/6
f 449/2/6 444/2/6 450/2/6
f 438/1/6 445/1/6 450/1/6
f 450/1/6 445/1/6 451/1/6
f 446/1/6 441/1/6 452/1/6
f 447/2/6 448/2/6 453/2/6
f 452/1/6 441/1/6 453/1/6
f 441/2/6 447/2/6 453/2/6
f 453/2/6 448/2/6 454/2/6
f 455/2/6 456/2/6 457/2/6
f 457/2/6 456/2/6 458/2/6
