# MagicaVoxel @ Ephtracy

# group
g Char003

# material
mtllib Char003.mtl
usemtl palette

# normals
vn -1 0 0
vn 1 0 0
vn 0 0 1
vn 0 0 -1
vn 0 -1 0
vn 0 1 0

# texcoords
vt 0.0605469 0.5
vt 0.470703 0.5
vt 0.560547 0.5
vt 0.623047 0.5
vt 0.958984 0.5

# verts
v -6 10 -0
v -6 10 -2
v -6 12 -0
v -6 12 -2
v -5 12 -0
v -5 12 -2
v -5 17 -0
v -5 17 -2
v -5 19 -0
v -5 19 -2
v -4 10 -0
v -4 10 -1
v -4 11 -0
v -4 11 -1
v -4 19 -0
v -4 19 -2
v -4 20 -0
v -4 20 -2
v -3 0 2
v -3 0 -2
v -3 1 2
v -3 1 -0
v -3 4 -0
v -3 4 -2
v -3 5 1
v -3 5 -0
v -3 5 -1
v -3 5 -2
v -3 9 -1
v -3 9 -2
v -3 10 -0
v -3 10 -1
v -3 11 1
v -3 11 -0
v -3 11 -1
v -3 11 -2
v -3 17 -0
v -3 20 1
v -3 20 -0
v -1 20 -0
v -1 20 -1
v -1 20 -2
v -1 21 -0
v -1 21 -2
v 1 0 2
v 1 0 -2
v 1 1 2
v 1 1 -0
v 1 4 -0
v 1 4 -2
v 1 5 1
v 1 5 -0
v 1 5 -1
v 1 5 -2
v 1 9 1
v 1 9 -1
v 5 10 -0
v 5 10 -2
v 5 11 -0
v 5 11 -2
v -5 10 -0
v -5 10 -2
v -5 11 -0
v -5 11 -2
v -1 0 2
v -1 0 -2
v -1 1 2
v -1 1 -0
v -1 4 -0
v -1 4 -2
v -1 5 1
v -1 5 -0
v -1 5 -1
v -1 5 -2
v -1 9 1
v -1 9 -1
v 1 20 -0
v 1 20 -1
v 1 20 -2
v 1 21 -0
v 1 21 -2
v 3 0 2
v 3 0 -2
v 3 1 2
v 3 1 -0
v 3 4 -0
v 3 4 -2
v 3 5 1
v 3 5 -0
v 3 5 -1
v 3 5 -2
v 3 9 -1
v 3 9 -2
v 3 10 -0
v 3 10 -1
v 3 11 1
v 3 11 -0
v 3 11 -1
v 3 11 -2
v 3 17 -0
v 3 20 1
v 3 20 -0
v 4 10 -0
v 4 10 -1
v 4 11 -0
v 4 11 -1
v 4 19 -0
v 4 19 -2
v 4 20 -0
v 4 20 -2
v 5 12 -0
v 5 12 -2
v 5 17 -0
v 5 17 -2
v 5 19 -0
v 5 19 -2
v 6 10 -0
v 6 10 -2
v 6 12 -0
v 6 12 -2
v -3 0 2
v -3 1 2
v -1 0 2
v -1 1 2
v 1 0 2
v 1 1 2
v 3 0 2
v 3 1 2
v -3 5 1
v -3 11 1
v -3 20 1
v -2 11 1
v -2 12 1
v -2 17 1
v -2 20 1
v -1 5 1
v -1 9 1
v -1 12 1
v -1 17 1
v -1 18 1
v -1 20 1
v 1 5 1
v 1 9 1
v 1 12 1
v 1 17 1
v 1 18 1
v 1 20 1
v 2 11 1
v 2 12 1
v 2 17 1
v 2 20 1
v 3 5 1
v 3 11 1
v 3 20 1
v -6 10 -0
v -6 12 -0
v -5 10 -0
v -5 11 -0
v -5 12 -0
v -5 17 -0
v -5 19 -0
v -4 10 -0
v -4 11 -0
v -4 19 -0
v -4 20 -0
v -3 1 -0
v -3 4 -0
v -3 5 -0
v -3 10 -0
v -3 11 -0
v -3 17 -0
v -3 20 -0
v -1 1 -0
v -1 4 -0
v -1 5 -0
v -1 20 -0
v -1 21 -0
v 1 1 -0
v 1 4 -0
v 1 5 -0
v 1 20 -0
v 1 21 -0
v 3 1 -0
v 3 4 -0
v 3 5 -0
v 3 10 -0
v 3 11 -0
v 3 17 -0
v 3 20 -0
v 4 10 -0
v 4 11 -0
v 4 19 -0
v 4 20 -0
v 5 10 -0
v 5 11 -0
v 5 12 -0
v 5 17 -0
v 5 19 -0
v 6 10 -0
v 6 12 -0
v -4 10 -1
v -4 11 -1
v -3 5 -1
v -3 9 -1
v -3 10 -1
v -3 11 -1
v -1 5 -1
v -1 9 -1
v 1 5 -1
v 1 9 -1
v 3 5 -1
v 3 9 -1
v 3 10 -1
v 3 11 -1
v 4 10 -1
v 4 11 -1
v -6 10 -2
v -6 12 -2
v -5 10 -2
v -5 11 -2
v -5 12 -2
v -5 17 -2
v -5 19 -2
v -4 19 -2
v -4 20 -2
v -3 0 -2
v -3 4 -2
v -3 5 -2
v -3 9 -2
v -3 11 -2
v -3 17 -2
v -1 0 -2
v -1 4 -2
v -1 5 -2
v -1 20 -2
v -1 21 -2
v 1 0 -2
v 1 4 -2
v 1 5 -2
v 1 20 -2
v 1 21 -2
v 3 0 -2
v 3 4 -2
v 3 5 -2
v 3 9 -2
v 3 11 -2
v 3 17 -2
v 4 19 -2
v 4 20 -2
v 5 10 -2
v 5 11 -2
v 5 12 -2
v 5 17 -2
v 5 19 -2
v 6 10 -2
v 6 12 -2
v -3 0 2
v -1 0 2
v 1 0 2
v 3 0 2
v -3 0 -2
v -1 0 -2
v 1 0 -2
v 3 0 -2
v -3 5 1
v -1 5 1
v 1 5 1
v 3 5 1
v -3 5 -0
v -1 5 -0
v 1 5 -0
v 3 5 -0
v -1 9 1
v 1 9 1
v -3 9 -1
v -1 9 -1
v 1 9 -1
v 3 9 -1
v -3 9 -2
v 3 9 -2
v -6 10 -0
v -5 10 -0
v -4 10 -0
v -3 10 -0
v 3 10 -0
v 4 10 -0
v 5 10 -0
v 6 10 -0
v -4 10 -1
v -3 10 -1
v 3 10 -1
v 4 10 -1
v -6 10 -2
v -5 10 -2
v 5 10 -2
v 6 10 -2
v -5 11 -0
v -4 11 -0
v 4 11 -0
v 5 11 -0
v -4 11 -1
v -3 11 -1
v 3 11 -1
v 4 11 -1
v -5 11 -2
v -3 11 -2
v 3 11 -2
v 5 11 -2
v -3 1 2
v -1 1 2
v 1 1 2
v 3 1 2
v -3 1 -0
v -1 1 -0
v 1 1 -0
v 3 1 -0
v -3 5 -1
v -1 5 -1
v 1 5 -1
v 3 5 -1
v -3 5 -2
v -1 5 -2
v 1 5 -2
v 3 5 -2
v -6 12 -0
v -5 12 -0
v 5 12 -0
v 6 12 -0
v -6 12 -2
v -5 12 -2
v 5 12 -2
v 6 12 -2
v -5 19 -0
v -4 19 -0
v 4 19 -0
v 5 19 -0
v -5 19 -2
v -4 19 -2
v 4 19 -2
v 5 19 -2
v -3 20 1
v -2 20 1
v -1 20 1
v 1 20 1
v 2 20 1
v 3 20 1
v -4 20 -0
v -3 20 -0
v -1 20 -0
v 1 20 -0
v 3 20 -0
v 4 20 -0
v -2 20 -1
v -1 20 -1
v 1 20 -1
v 2 20 -1
v -4 20 -2
v -1 20 -2
v 1 20 -2
v 4 20 -2
v -1 21 -0
v 1 21 -0
v -1 21 -2
v 1 21 -2

# faces
f 3/1/1 2/1/1 1/1/1
f 4/1/1 2/1/1 3/1/1
f 7/1/1 6/1/1 5/1/1
f 8/1/1 6/1/1 7/1/1
f 9/4/1 8/4/1 7/4/1
f 10/4/1 8/4/1 9/4/1
f 13/1/1 12/1/1 11/1/1
f 14/1/1 12/1/1 13/1/1
f 17/4/1 16/4/1 15/4/1
f 18/4/1 16/4/1 17/4/1
f 21/3/1 20/3/1 19/3/1
f 22/3/1 20/3/1 21/3/1
f 23/3/1 20/3/1 22/3/1
f 24/3/1 20/3/1 23/3/1
f 26/2/1 24/2/1 23/2/1
f 27/2/1 24/2/1 26/2/1
f 28/2/1 24/2/1 27/2/1
f 29/2/1 26/2/1 25/2/1
f 29/2/1 27/2/1 26/2/1
f 31/2/1 29/2/1 25/2/1
f 31/2/1 30/2/1 29/2/1
f 32/2/1 30/2/1 31/2/1
f 33/2/1 31/2/1 25/2/1
f 34/2/1 31/2/1 33/2/1
f 35/2/1 30/2/1 32/2/1
f 36/2/1 30/2/1 35/2/1
f 37/4/1 34/4/1 33/4/1
f 38/4/1 37/4/1 33/4/1
f 39/4/1 37/4/1 38/4/1
f 43/1/1 41/1/1 40/1/1
f 43/1/1 42/1/1 41/1/1
f 44/1/1 42/1/1 43/1/1
f 47/3/1 46/3/1 45/3/1
f 48/3/1 46/3/1 47/3/1
f 49/3/1 46/3/1 48/3/1
f 50/3/1 46/3/1 49/3/1
f 52/2/1 50/2/1 49/2/1
f 53/2/1 50/2/1 52/2/1
f 54/2/1 50/2/1 53/2/1
f 55/2/1 52/2/1 51/2/1
f 55/2/1 53/2/1 52/2/1
f 56/2/1 53/2/1 55/2/1
f 59/1/1 58/1/1 57/1/1
f 60/1/1 58/1/1 59/1/1
f 61/1/2 62/1/2 63/1/2
f 63/1/2 62/1/2 64/1/2
f 65/3/2 66/3/2 67/3/2
f 67/3/2 66/3/2 68/3/2
f 68/3/2 66/3/2 69/3/2
f 69/3/2 66/3/2 70/3/2
f 69/2/2 70/2/2 72/2/2
f 72/2/2 70/2/2 73/2/2
f 73/2/2 70/2/2 74/2/2
f 71/2/2 72/2/2 75/2/2
f 72/2/2 73/2/2 75/2/2
f 75/2/2 73/2/2 76/2/2
f 77/1/2 78/1/2 80/1/2
f 78/1/2 79/1/2 80/1/2
f 80/1/2 79/1/2 81/1/2
f 82/3/2 83/3/2 84/3/2
f 84/3/2 83/3/2 85/3/2
f 85/3/2 83/3/2 86/3/2
f 86/3/2 83/3/2 87/3/2
f 86/2/2 87/2/2 89/2/2
f 89/2/2 87/2/2 90/2/2
f 90/2/2 87/2/2 91/2/2
f 88/2/2 89/2/2 92/2/2
f 89/2/2 90/2/2 92/2/2
f 88/2/2 92/2/2 94/2/2
f 92/2/2 93/2/2 94/2/2
f 94/2/2 93/2/2 95/2/2
f 88/2/2 94/2/2 96/2/2
f 96/2/2 94/2/2 97/2/2
f 95/2/2 93/2/2 98/2/2
f 98/2/2 93/2/2 99/2/2
f 96/4/2 97/4/2 100/4/2
f 96/4/2 100/4/2 101/4/2
f 101/4/2 100/4/2 102/4/2
f 103/1/2 104/1/2 105/1/2
f 105/1/2 104/1/2 106/1/2
f 107/4/2 108/4/2 109/4/2
f 109/4/2 108/4/2 110/4/2
f 111/1/2 112/1/2 113/1/2
f 113/1/2 112/1/2 114/1/2
f 113/4/2 114/4/2 115/4/2
f 115/4/2 114/4/2 116/4/2
f 117/1/2 118/1/2 119/1/2
f 119/1/2 118/1/2 120/1/2
f 123/3/3 122/3/3 121/3/3
f 124/3/3 122/3/3 123/3/3
f 127/3/3 126/3/3 125/3/3
f 128/3/3 126/3/3 127/3/3
f 132/2/3 130/2/3 129/2/3
f 132/4/3 131/4/3 130/4/3
f 133/4/3 131/4/3 132/4/3
f 134/4/3 131/4/3 133/4/3
f 135/4/3 131/4/3 134/4/3
f 136/2/3 132/2/3 129/2/3
f 136/2/3 133/2/3 132/2/3
f 137/2/3 133/2/3 136/2/3
f 138/4/3 134/4/3 133/4/3
f 138/2/3 133/2/3 137/2/3
f 139/5/3 135/5/3 134/5/3
f 139/4/3 134/4/3 138/4/3
f 140/5/3 135/5/3 139/5/3
f 141/5/3 135/5/3 140/5/3
f 143/2/3 138/2/3 137/2/3
f 144/5/3 139/5/3 138/5/3
f 144/5/3 140/5/3 139/5/3
f 144/2/3 138/2/3 143/2/3
f 145/5/3 140/5/3 144/5/3
f 146/1/3 141/1/3 140/1/3
f 146/5/3 140/5/3 145/5/3
f 147/1/3 141/1/3 146/1/3
f 148/2/3 143/2/3 142/2/3
f 148/2/3 144/2/3 143/2/3
f 149/4/3 145/4/3 144/4/3
f 149/2/3 144/2/3 148/2/3
f 150/5/3 147/5/3 146/5/3
f 150/4/3 145/4/3 149/4/3
f 150/5/3 146/5/3 145/5/3
f 151/5/3 147/5/3 150/5/3
f 152/2/3 148/2/3 142/2/3
f 153/4/3 149/4/3 148/4/3
f 153/2/3 148/2/3 152/2/3
f 153/4/3 150/4/3 149/4/3
f 153/4/3 151/4/3 150/4/3
f 154/4/3 151/4/3 153/4/3
f 157/1/3 156/1/3 155/1/3
f 158/1/3 156/1/3 157/1/3
f 159/1/3 156/1/3 158/1/3
f 163/1/3 159/1/3 158/1/3
f 163/1/3 160/1/3 159/1/3
f 164/4/3 161/4/3 160/4/3
f 169/1/3 163/1/3 162/1/3
f 170/1/3 160/1/3 163/1/3
f 170/1/3 163/1/3 169/1/3
f 171/4/3 164/4/3 160/4/3
f 171/1/3 160/1/3 170/1/3
f 171/4/3 165/4/3 164/4/3
f 172/4/3 165/4/3 171/4/3
f 173/3/3 167/3/3 166/3/3
f 174/2/3 168/2/3 167/2/3
f 174/3/3 167/3/3 173/3/3
f 175/2/3 168/2/3 174/2/3
f 181/1/3 177/1/3 176/1/3
f 182/1/3 177/1/3 181/1/3
f 183/3/3 179/3/3 178/3/3
f 184/2/3 180/2/3 179/2/3
f 184/3/3 179/3/3 183/3/3
f 185/2/3 180/2/3 184/2/3
f 190/1/3 188/1/3 187/1/3
f 190/1/3 187/1/3 186/1/3
f 191/1/3 188/1/3 190/1/3
f 192/4/3 189/4/3 188/4/3
f 193/4/3 189/4/3 192/4/3
f 195/1/3 188/1/3 191/1/3
f 196/1/3 188/1/3 195/1/3
f 197/4/3 192/4/3 188/4/3
f 197/1/3 188/1/3 196/1/3
f 198/4/3 192/4/3 197/4/3
f 199/1/3 196/1/3 195/1/3
f 199/1/3 195/1/3 194/1/3
f 200/1/3 196/1/3 199/1/3
f 201/1/4 202/1/4 205/1/4
f 205/1/4 202/1/4 206/1/4
f 203/2/4 204/2/4 207/2/4
f 207/2/4 204/2/4 208/2/4
f 209/2/4 210/2/4 211/2/4
f 211/2/4 210/2/4 212/2/4
f 213/1/4 214/1/4 215/1/4
f 215/1/4 214/1/4 216/1/4
f 217/1/4 218/1/4 219/1/4
f 219/1/4 218/1/4 220/1/4
f 220/1/4 218/1/4 221/1/4
f 222/4/4 223/4/4 224/4/4
f 221/1/4 222/1/4 230/1/4
f 220/1/4 221/1/4 230/1/4
f 222/4/4 224/4/4 231/4/4
f 224/4/4 225/4/4 231/4/4
f 230/1/4 222/1/4 231/1/4
f 226/3/4 227/3/4 232/3/4
f 227/2/4 228/2/4 233/2/4
f 232/3/4 227/3/4 233/3/4
f 233/2/4 228/2/4 234/2/4
f 231/4/4 225/4/4 235/4/4
f 230/4/4 231/4/4 235/4/4
f 235/1/4 236/1/4 240/1/4
f 230/4/4 235/4/4 240/4/4
f 240/1/4 236/1/4 241/1/4
f 237/3/4 238/3/4 242/3/4
f 238/2/4 239/2/4 243/2/4
f 242/3/4 238/3/4 243/3/4
f 243/2/4 239/2/4 244/2/4
f 229/2/4 230/2/4 245/2/4
f 230/4/4 240/4/4 246/4/4
f 245/2/4 230/2/4 246/2/4
f 246/4/4 240/4/4 247/4/4
f 247/4/4 240/4/4 248/4/4
f 248/4/4 240/4/4 249/4/4
f 246/1/4 247/1/4 251/1/4
f 251/1/4 247/1/4 252/1/4
f 247/4/4 248/4/4 253/4/4
f 252/1/4 247/1/4 253/1/4
f 253/4/4 248/4/4 254/4/4
f 251/1/4 252/1/4 255/1/4
f 250/1/4 251/1/4 255/1/4
f 255/1/4 252/1/4 256/1/4
f 261/3/5 258/3/5 257/3/5
f 262/3/5 258/3/5 261/3/5
f 263/3/5 260/3/5 259/3/5
f 264/3/5 260/3/5 263/3/5
f 269/2/5 266/2/5 265/2/5
f 270/2/5 266/2/5 269/2/5
f 271/2/5 268/2/5 267/2/5
f 272/2/5 268/2/5 271/2/5
f 276/2/5 274/2/5 273/2/5
f 277/2/5 274/2/5 276/2/5
f 279/2/5 276/2/5 275/2/5
f 279/2/5 278/2/5 277/2/5
f 279/2/5 277/2/5 276/2/5
f 280/2/5 278/2/5 279/2/5
f 289/1/5 284/1/5 283/1/5
f 290/1/5 284/1/5 289/1/5
f 291/1/5 286/1/5 285/1/5
f 292/1/5 286/1/5 291/1/5
f 293/1/5 282/1/5 281/1/5
f 294/1/5 282/1/5 293/1/5
f 295/1/5 288/1/5 287/1/5
f 296/1/5 288/1/5 295/1/5
f 301/1/5 298/1/5 297/1/5
f 304/1/5 300/1/5 299/1/5
f 305/1/5 302/1/5 301/1/5
f 305/1/5 301/1/5 297/1/5
f 306/1/5 302/1/5 305/1/5
f 307/1/5 304/1/5 303/1/5
f 308/1/5 300/1/5 304/1/5
f 308/1/5 304/1/5 307/1/5
f 309/3/6 310/3/6 313/3/6
f 313/3/6 310/3/6 314/3/6
f 311/3/6 312/3/6 315/3/6
f 315/3/6 312/3/6 316/3/6
f 317/2/6 318/2/6 321/2/6
f 321/2/6 318/2/6 322/2/6
f 319/2/6 320/2/6 323/2/6
f 323/2/6 320/2/6 324/2/6
f 325/1/6 326/1/6 329/1/6
f 329/1/6 326/1/6 330/1/6
f 327/1/6 328/1/6 331/1/6
f 331/1/6 328/1/6 332/1/6
f 333/4/6 334/4/6 337/4/6
f 337/4/6 334/4/6 338/4/6
f 335/4/6 336/4/6 339/4/6
f 339/4/6 336/4/6 340/4/6
f 341/4/6 342/4/6 348/4/6
f 342/5/6 343/5/6 349/5/6
f 343/1/6 344/1/6 349/1/6
f 344/5/6 345/5/6 350/5/6
f 349/1/6 344/1/6 350/1/6
f 345/4/6 346/4/6 351/4/6
f 347/4/6 348/4/6 353/4/6
f 348/4/6 342/4/6 353/4/6
f 342/5/6 349/5/6 353/5/6
f 353/5/6 349/5/6 354/5/6
f 350/5/6 345/5/6 355/5/6
f 351/4/6 352/4/6 356/4/6
f 355/5/6 345/5/6 356/5/6
f 345/4/6 351/4/6 356/4/6
f 353/4/6 354/4/6 357/4/6
f 347/4/6 353/4/6 357/4/6
f 357/4/6 354/4/6 358/4/6
f 355/4/6 356/4/6 359/4/6
f 356/4/6 352/4/6 360/4/6
f 359/4/6 356/4/6 360/4/6
f 361/1/6 362/1/6 363/1/6
f 363/1/6 362/1/6 364/1/6
