# MagicaVoxel @ Ephtracy

# group
g Char005

# material
mtllib Char005.mtl
usemtl palette

# normals
vn -1 0 0
vn 1 0 0
vn 0 0 1
vn 0 0 -1
vn 0 -1 0
vn 0 1 0

# texcoords
vt 0.0605469 0.5
vt 0.0917969 0.5
vt 0.533203 0.5
vt 0.810547 0.5
vt 0.849609 0.5
vt 0.958984 0.5

# verts
v -6 10 -0
v -6 10 -2
v -6 12 -0
v -6 12 -2
v -5 12 -0
v -5 12 -2
v -5 16 -0
v -5 16 -2
v -5 17 -0
v -5 17 -2
v -5 19 -0
v -5 19 -2
v -4 10 -0
v -4 10 -1
v -4 11 -0
v -4 11 -1
v -4 19 -0
v -4 19 -2
v -4 20 -0
v -4 20 -2
v -3 0 2
v -3 0 -2
v -3 1 2
v -3 1 -0
v -3 1 -2
v -3 5 1
v -3 5 -0
v -3 5 -1
v -3 5 -2
v -3 9 -1
v -3 9 -2
v -3 10 -0
v -3 10 -1
v -3 11 -1
v -3 11 -2
v -3 12 1
v -3 12 -0
v -3 16 -0
v -3 17 -0
v -3 20 1
v -3 20 -0
v -1 20 -0
v -1 20 -2
v -1 21 -0
v -1 21 -2
v 1 0 2
v 1 0 -2
v 1 1 2
v 1 1 -0
v 1 1 -2
v 1 5 1
v 1 5 -0
v 1 5 -1
v 1 5 -2
v 1 9 1
v 1 9 -1
v 5 10 -0
v 5 10 -2
v 5 11 -0
v 5 11 -2
v -5 10 -0
v -5 10 -2
v -5 11 -0
v -5 11 -2
v -1 0 2
v -1 0 -2
v -1 1 2
v -1 1 -0
v -1 1 -2
v -1 5 1
v -1 5 -0
v -1 5 -1
v -1 5 -2
v -1 9 1
v -1 9 -1
v 1 20 -0
v 1 20 -2
v 1 21 -0
v 1 21 -2
v 3 0 2
v 3 0 -2
v 3 1 2
v 3 1 -0
v 3 1 -2
v 3 5 1
v 3 5 -0
v 3 5 -1
v 3 5 -2
v 3 9 -1
v 3 9 -2
v 3 10 -0
v 3 10 -1
v 3 11 -1
v 3 11 -2
v 3 12 1
v 3 12 -0
v 3 16 -0
v 3 17 -0
v 3 20 1
v 3 20 -0
v 4 10 -0
v 4 10 -1
v 4 11 -0
v 4 11 -1
v 4 19 -0
v 4 19 -2
v 4 20 -0
v 4 20 -2
v 5 12 -0
v 5 12 -2
v 5 16 -0
v 5 16 -2
v 5 17 -0
v 5 17 -2
v 5 19 -0
v 5 19 -2
v 6 10 -0
v 6 10 -2
v 6 12 -0
v 6 12 -2
v -3 0 2
v -3 1 2
v -1 0 2
v -1 1 2
v 1 0 2
v 1 1 2
v 3 0 2
v 3 1 2
v -3 5 1
v -3 12 1
v -3 20 1
v -2 19 1
v -2 20 1
v -1 5 1
v -1 9 1
v -1 16 1
v -1 17 1
v -1 18 1
v -1 19 1
v -1 20 1
v 1 5 1
v 1 9 1
v 1 16 1
v 1 17 1
v 1 18 1
v 1 19 1
v 1 20 1
v 2 19 1
v 2 20 1
v 3 5 1
v 3 12 1
v 3 20 1
v -6 10 -0
v -6 12 -0
v -5 10 -0
v -5 11 -0
v -5 12 -0
v -5 16 -0
v -5 17 -0
v -5 19 -0
v -4 10 -0
v -4 11 -0
v -4 19 -0
v -4 20 -0
v -3 1 -0
v -3 5 -0
v -3 10 -0
v -3 12 -0
v -3 16 -0
v -3 17 -0
v -3 20 -0
v -1 1 -0
v -1 5 -0
v -1 20 -0
v -1 21 -0
v 1 1 -0
v 1 5 -0
v 1 20 -0
v 1 21 -0
v 3 1 -0
v 3 5 -0
v 3 10 -0
v 3 12 -0
v 3 16 -0
v 3 17 -0
v 3 20 -0
v 4 10 -0
v 4 11 -0
v 4 19 -0
v 4 20 -0
v 5 10 -0
v 5 11 -0
v 5 12 -0
v 5 16 -0
v 5 17 -0
v 5 19 -0
v 6 10 -0
v 6 12 -0
v -4 10 -1
v -4 11 -1
v -3 5 -1
v -3 9 -1
v -3 10 -1
v -3 11 -1
v -1 5 -1
v -1 9 -1
v 1 5 -1
v 1 9 -1
v 3 5 -1
v 3 9 -1
v 3 10 -1
v 3 11 -1
v 4 10 -1
v 4 11 -1
v -6 10 -2
v -6 12 -2
v -5 10 -2
v -5 11 -2
v -5 12 -2
v -5 16 -2
v -5 17 -2
v -5 19 -2
v -4 19 -2
v -4 20 -2
v -3 0 -2
v -3 1 -2
v -3 5 -2
v -3 9 -2
v -3 11 -2
v -3 12 -2
v -3 16 -2
v -3 17 -2
v -2 13 -2
v -2 18 -2
v -2 19 -2
v -2 20 -2
v -1 0 -2
v -1 1 -2
v -1 5 -2
v -1 13 -2
v -1 18 -2
v -1 20 -2
v -1 21 -2
v 0 13 -2
v 0 14 -2
v 0 15 -2
v 0 18 -2
v 1 0 -2
v 1 1 -2
v 1 5 -2
v 1 14 -2
v 1 15 -2
v 1 16 -2
v 1 17 -2
v 1 20 -2
v 1 21 -2
v 2 13 -2
v 2 16 -2
v 2 17 -2
v 2 18 -2
v 2 19 -2
v 2 20 -2
v 3 0 -2
v 3 1 -2
v 3 5 -2
v 3 9 -2
v 3 11 -2
v 3 12 -2
v 3 16 -2
v 3 17 -2
v 4 19 -2
v 4 20 -2
v 5 10 -2
v 5 11 -2
v 5 12 -2
v 5 16 -2
v 5 17 -2
v 5 19 -2
v 6 10 -2
v 6 12 -2
v -3 0 2
v -1 0 2
v 1 0 2
v 3 0 2
v -3 0 -2
v -1 0 -2
v 1 0 -2
v 3 0 -2
v -3 5 1
v -1 5 1
v 1 5 1
v 3 5 1
v -3 5 -0
v -1 5 -0
v 1 5 -0
v 3 5 -0
v -1 9 1
v 1 9 1
v -3 9 -1
v -1 9 -1
v 1 9 -1
v 3 9 -1
v -3 9 -2
v 3 9 -2
v -6 10 -0
v -5 10 -0
v -4 10 -0
v -3 10 -0
v 3 10 -0
v 4 10 -0
v 5 10 -0
v 6 10 -0
v -4 10 -1
v -3 10 -1
v 3 10 -1
v 4 10 -1
v -6 10 -2
v -5 10 -2
v 5 10 -2
v 6 10 -2
v -5 11 -0
v -4 11 -0
v 4 11 -0
v 5 11 -0
v -4 11 -1
v -3 11 -1
v 3 11 -1
v 4 11 -1
v -5 11 -2
v -3 11 -2
v 3 11 -2
v 5 11 -2
v -3 1 2
v -1 1 2
v 1 1 2
v 3 1 2
v -3 1 -0
v -1 1 -0
v 1 1 -0
v 3 1 -0
v -3 5 -1
v -1 5 -1
v 1 5 -1
v 3 5 -1
v -3 5 -2
v -1 5 -2
v 1 5 -2
v 3 5 -2
v -6 12 -0
v -5 12 -0
v 5 12 -0
v 6 12 -0
v -6 12 -2
v -5 12 -2
v 5 12 -2
v 6 12 -2
v -5 19 -0
v -4 19 -0
v 4 19 -0
v 5 19 -0
v -5 19 -2
v -4 19 -2
v 4 19 -2
v 5 19 -2
v -3 20 1
v -2 20 1
v -1 20 1
v 1 20 1
v 2 20 1
v 3 20 1
v -4 20 -0
v -3 20 -0
v -1 20 -0
v 1 20 -0
v 3 20 -0
v 4 20 -0
v -4 20 -2
v -2 20 -2
v -1 20 -2
v 1 20 -2
v 2 20 -2
v 4 20 -2
v -1 21 -0
v 1 21 -0
v -1 21 -2
v 1 21 -2

# faces
f 3/3/1 2/3/1 1/3/1
f 4/3/1 2/3/1 3/3/1
f 7/3/1 6/3/1 5/3/1
f 8/3/1 6/3/1 7/3/1
f 9/6/1 8/6/1 7/6/1
f 10/6/1 8/6/1 9/6/1
f 11/5/1 10/5/1 9/5/1
f 12/5/1 10/5/1 11/5/1
f 15/3/1 14/3/1 13/3/1
f 16/3/1 14/3/1 15/3/1
f 19/5/1 18/5/1 17/5/1
f 20/5/1 18/5/1 19/5/1
f 23/2/1 22/2/1 21/2/1
f 24/2/1 22/2/1 23/2/1
f 25/2/1 22/2/1 24/2/1
f 27/4/1 25/4/1 24/4/1
f 28/4/1 25/4/1 27/4/1
f 29/4/1 25/4/1 28/4/1
f 30/4/1 27/4/1 26/4/1
f 30/4/1 28/4/1 27/4/1
f 32/4/1 30/4/1 26/4/1
f 32/4/1 31/4/1 30/4/1
f 33/4/1 31/4/1 32/4/1
f 34/4/1 31/4/1 33/4/1
f 35/4/1 31/4/1 34/4/1
f 36/4/1 32/4/1 26/4/1
f 37/4/1 32/4/1 36/4/1
f 38/5/1 37/5/1 36/5/1
f 39/5/1 38/5/1 36/5/1
f 40/5/1 39/5/1 36/5/1
f 41/5/1 39/5/1 40/5/1
f 44/3/1 43/3/1 42/3/1
f 45/3/1 43/3/1 44/3/1
f 48/2/1 47/2/1 46/2/1
f 49/2/1 47/2/1 48/2/1
f 50/2/1 47/2/1 49/2/1
f 52/4/1 50/4/1 49/4/1
f 53/4/1 50/4/1 52/4/1
f 54/4/1 50/4/1 53/4/1
f 55/4/1 52/4/1 51/4/1
f 55/4/1 53/4/1 52/4/1
f 56/4/1 53/4/1 55/4/1
f 59/3/1 58/3/1 57/3/1
f 60/3/1 58/3/1 59/3/1
f 61/3/2 62/3/2 63/3/2
f 63/3/2 62/3/2 64/3/2
f 65/2/2 66/2/2 67/2/2
f 67/2/2 66/2/2 68/2/2
f 68/2/2 66/2/2 69/2/2
f 68/4/2 69/4/2 71/4/2
f 71/4/2 69/4/2 72/4/2
f 72/4/2 69/4/2 73/4/2
f 70/4/2 71/4/2 74/4/2
f 71/4/2 72/4/2 74/4/2
f 74/4/2 72/4/2 75/4/2
f 76/3/2 77/3/2 78/3/2
f 78/3/2 77/3/2 79/3/2
f 80/2/2 81/2/2 82/2/2
f 82/2/2 81/2/2 83/2/2
f 83/2/2 81/2/2 84/2/2
f 83/4/2 84/4/2 86/4/2
f 86/4/2 84/4/2 87/4/2
f 87/4/2 84/4/2 88/4/2
f 85/4/2 86/4/2 89/4/2
f 86/4/2 87/4/2 89/4/2
f 85/4/2 89/4/2 91/4/2
f 89/4/2 90/4/2 91/4/2
f 91/4/2 90/4/2 92/4/2
f 92/4/2 90/4/2 93/4/2
f 93/4/2 90/4/2 94/4/2
f 85/4/2 91/4/2 95/4/2
f 95/4/2 91/4/2 96/4/2
f 95/5/2 96/5/2 97/5/2
f 95/5/2 97/5/2 98/5/2
f 95/5/2 98/5/2 99/5/2
f 99/5/2 98/5/2 100/5/2
f 101/3/2 102/3/2 103/3/2
f 103/3/2 102/3/2 104/3/2
f 105/5/2 106/5/2 107/5/2
f 107/5/2 106/5/2 108/5/2
f 109/3/2 110/3/2 111/3/2
f 111/3/2 110/3/2 112/3/2
f 111/6/2 112/6/2 113/6/2
f 113/6/2 112/6/2 114/6/2
f 113/5/2 114/5/2 115/5/2
f 115/5/2 114/5/2 116/5/2
f 117/3/2 118/3/2 119/3/2
f 119/3/2 118/3/2 120/3/2
f 123/2/3 122/2/3 121/2/3
f 124/2/3 122/2/3 123/2/3
f 127/2/3 126/2/3 125/2/3
f 128/2/3 126/2/3 127/2/3
f 132/5/3 131/5/3 130/5/3
f 133/5/3 131/5/3 132/5/3
f 134/4/3 130/4/3 129/4/3
f 135/4/3 130/4/3 134/4/3
f 136/5/3 132/5/3 130/5/3
f 137/5/3 132/5/3 136/5/3
f 138/5/3 132/5/3 137/5/3
f 139/6/3 133/6/3 132/6/3
f 139/5/3 132/5/3 138/5/3
f 140/6/3 133/6/3 139/6/3
f 142/4/3 130/4/3 135/4/3
f 143/5/3 136/5/3 130/5/3
f 143/6/3 137/6/3 136/6/3
f 144/5/3 138/5/3 137/5/3
f 144/6/3 137/6/3 143/6/3
f 145/6/3 139/6/3 138/6/3
f 145/5/3 138/5/3 144/5/3
f 146/3/3 140/3/3 139/3/3
f 146/6/3 139/6/3 145/6/3
f 147/3/3 140/3/3 146/3/3
f 148/5/3 145/5/3 144/5/3
f 148/5/3 144/5/3 143/5/3
f 148/6/3 147/6/3 146/6/3
f 148/5/3 146/5/3 145/5/3
f 149/6/3 147/6/3 148/6/3
f 150/4/3 142/4/3 141/4/3
f 151/5/3 143/5/3 130/5/3
f 151/4/3 142/4/3 150/4/3
f 151/4/3 130/4/3 142/4/3
f 151/5/3 149/5/3 148/5/3
f 151/5/3 148/5/3 143/5/3
f 152/5/3 149/5/3 151/5/3
f 155/3/3 154/3/3 153/3/3
f 156/3/3 154/3/3 155/3/3
f 157/3/3 154/3/3 156/3/3
f 162/3/3 157/3/3 156/3/3
f 162/3/3 158/3/3 157/3/3
f 163/5/3 160/5/3 159/5/3
f 167/3/3 162/3/3 161/3/3
f 168/3/3 158/3/3 162/3/3
f 168/3/3 162/3/3 167/3/3
f 169/6/3 159/6/3 158/6/3
f 169/3/3 158/3/3 168/3/3
f 170/5/3 163/5/3 159/5/3
f 170/6/3 159/6/3 169/6/3
f 170/5/3 164/5/3 163/5/3
f 171/5/3 164/5/3 170/5/3
f 172/4/3 166/4/3 165/4/3
f 173/4/3 166/4/3 172/4/3
f 178/3/3 175/3/3 174/3/3
f 179/3/3 175/3/3 178/3/3
f 180/4/3 177/4/3 176/4/3
f 181/4/3 177/4/3 180/4/3
f 187/3/3 183/3/3 182/3/3
f 187/3/3 184/3/3 183/3/3
f 188/3/3 184/3/3 187/3/3
f 189/5/3 186/5/3 185/5/3
f 190/5/3 186/5/3 189/5/3
f 192/3/3 184/3/3 188/3/3
f 193/3/3 184/3/3 192/3/3
f 194/6/3 185/6/3 184/6/3
f 194/3/3 184/3/3 193/3/3
f 195/5/3 189/5/3 185/5/3
f 195/6/3 185/6/3 194/6/3
f 196/5/3 189/5/3 195/5/3
f 197/3/3 193/3/3 192/3/3
f 197/3/3 192/3/3 191/3/3
f 198/3/3 193/3/3 197/3/3
f 199/3/4 200/3/4 203/3/4
f 203/3/4 200/3/4 204/3/4
f 201/4/4 202/4/4 205/4/4
f 205/4/4 202/4/4 206/4/4
f 207/4/4 208/4/4 209/4/4
f 209/4/4 208/4/4 210/4/4
f 211/3/4 212/3/4 213/3/4
f 213/3/4 212/3/4 214/3/4
f 215/3/4 216/3/4 217/3/4
f 217/3/4 216/3/4 218/3/4
f 218/3/4 216/3/4 219/3/4
f 221/5/4 222/5/4 223/5/4
f 218/3/4 219/3/4 229/3/4
f 219/3/4 220/3/4 229/3/4
f 229/3/4 220/3/4 230/3/4
f 220/6/4 221/6/4 231/6/4
f 230/3/4 220/3/4 231/3/4
f 221/5/4 223/5/4 232/5/4
f 231/6/4 221/6/4 232/6/4
f 223/5/4 224/5/4 232/5/4
f 230/5/4 231/5/4 233/5/4
f 231/5/4 232/5/4 233/5/4
f 232/5/4 224/5/4 234/5/4
f 233/5/4 232/5/4 234/5/4
f 234/5/4 224/5/4 235/5/4
f 235/5/4 224/5/4 236/5/4
f 225/2/4 226/2/4 237/2/4
f 226/4/4 227/4/4 238/4/4
f 237/2/4 226/2/4 238/2/4
f 238/4/4 227/4/4 239/4/4
f 230/5/4 233/5/4 240/5/4
f 233/6/4 234/6/4 240/6/4
f 234/5/4 235/5/4 241/5/4
f 240/6/4 234/6/4 241/6/4
f 235/6/4 236/6/4 242/6/4
f 240/5/4 241/5/4 244/5/4
f 230/5/4 240/5/4 244/5/4
f 244/5/4 241/5/4 245/5/4
f 245/5/4 241/5/4 246/5/4
f 241/5/4 235/5/4 247/5/4
f 246/5/4 241/5/4 247/5/4
f 245/5/4 246/5/4 251/5/4
f 244/6/4 245/6/4 251/6/4
f 246/6/4 247/6/4 252/6/4
f 251/5/4 246/5/4 252/5/4
f 252/6/4 247/6/4 253/6/4
f 253/6/4 247/6/4 254/6/4
f 235/6/4 242/6/4 255/6/4
f 242/3/4 243/3/4 255/3/4
f 255/3/4 243/3/4 256/3/4
f 230/5/4 244/5/4 257/5/4
f 244/6/4 251/6/4 257/6/4
f 251/6/4 252/6/4 257/6/4
f 252/6/4 253/6/4 257/6/4
f 253/5/4 254/5/4 258/5/4
f 257/6/4 253/6/4 258/6/4
f 254/6/4 247/6/4 259/6/4
f 258/5/4 254/5/4 259/5/4
f 247/5/4 235/5/4 260/5/4
f 259/6/4 247/6/4 260/6/4
f 235/6/4 255/6/4 261/6/4
f 260/5/4 235/5/4 261/5/4
f 261/6/4 255/6/4 262/6/4
f 248/2/4 249/2/4 263/2/4
f 249/4/4 250/4/4 264/4/4
f 263/2/4 249/2/4 264/2/4
f 264/4/4 250/4/4 265/4/4
f 229/4/4 230/4/4 266/4/4
f 228/4/4 229/4/4 266/4/4
f 266/4/4 230/4/4 267/4/4
f 257/5/4 258/5/4 268/5/4
f 267/4/4 230/4/4 268/4/4
f 230/5/4 257/5/4 268/5/4
f 259/5/4 260/5/4 268/5/4
f 261/5/4 262/5/4 268/5/4
f 260/5/4 261/5/4 268/5/4
f 258/5/4 259/5/4 268/5/4
f 268/5/4 262/5/4 269/5/4
f 269/5/4 262/5/4 270/5/4
f 270/5/4 262/5/4 271/5/4
f 271/5/4 262/5/4 272/5/4
f 268/3/4 269/3/4 274/3/4
f 267/3/4 268/3/4 274/3/4
f 274/3/4 269/3/4 275/3/4
f 269/6/4 270/6/4 276/6/4
f 275/3/4 269/3/4 276/3/4
f 270/5/4 271/5/4 277/5/4
f 276/6/4 270/6/4 277/6/4
f 277/5/4 271/5/4 278/5/4
f 274/3/4 275/3/4 279/3/4
f 273/3/4 274/3/4 279/3/4
f 279/3/4 275/3/4 280/3/4
f 285/2/5 282/2/5 281/2/5
f 286/2/5 282/2/5 285/2/5
f 287/2/5 284/2/5 283/2/5
f 288/2/5 284/2/5 287/2/5
f 293/4/5 290/4/5 289/4/5
f 294/4/5 290/4/5 293/4/5
f 295/4/5 292/4/5 291/4/5
f 296/4/5 292/4/5 295/4/5
f 300/4/5 298/4/5 297/4/5
f 301/4/5 298/4/5 300/4/5
f 303/4/5 300/4/5 299/4/5
f 303/4/5 302/4/5 301/4/5
f 303/4/5 301/4/5 300/4/5
f 304/4/5 302/4/5 303/4/5
f 313/3/5 308/3/5 307/3/5
f 314/3/5 308/3/5 313/3/5
f 315/3/5 310/3/5 309/3/5
f 316/3/5 310/3/5 315/3/5
f 317/3/5 306/3/5 305/3/5
f 318/3/5 306/3/5 317/3/5
f 319/3/5 312/3/5 311/3/5
f 320/3/5 312/3/5 319/3/5
f 325/3/5 322/3/5 321/3/5
f 328/3/5 324/3/5 323/3/5
f 329/3/5 326/3/5 325/3/5
f 329/3/5 325/3/5 321/3/5
f 330/3/5 326/3/5 329/3/5
f 331/3/5 328/3/5 327/3/5
f 332/3/5 324/3/5 328/3/5
f 332/3/5 328/3/5 331/3/5
f 333/2/6 334/2/6 337/2/6
f 337/2/6 334/2/6 338/2/6
f 335/2/6 336/2/6 339/2/6
f 339/2/6 336/2/6 340/2/6
f 341/4/6 342/4/6 345/4/6
f 345/4/6 342/4/6 346/4/6
f 343/4/6 344/4/6 347/4/6
f 347/4/6 344/4/6 348/4/6
f 349/3/6 350/3/6 353/3/6
f 353/3/6 350/3/6 354/3/6
f 351/3/6 352/3/6 355/3/6
f 355/3/6 352/3/6 356/3/6
f 357/5/6 358/5/6 361/5/6
f 361/5/6 358/5/6 362/5/6
f 359/5/6 360/5/6 363/5/6
f 363/5/6 360/5/6 364/5/6
f 365/5/6 366/5/6 372/5/6
f 366/6/6 367/6/6 373/6/6
f 367/3/6 368/3/6 373/3/6
f 368/6/6 369/6/6 374/6/6
f 373/3/6 368/3/6 374/3/6
f 369/5/6 370/5/6 375/5/6
f 371/5/6 372/5/6 377/5/6
f 372/5/6 366/5/6 378/5/6
f 377/5/6 372/5/6 378/5/6
f 366/6/6 373/6/6 378/6/6
f 378/6/6 373/6/6 379/6/6
f 374/6/6 369/6/6 380/6/6
f 375/5/6 376/5/6 381/5/6
f 380/6/6 369/6/6 381/6/6
f 369/5/6 375/5/6 381/5/6
f 381/5/6 376/5/6 382/5/6
f 383/3/6 384/3/6 385/3/6
f 385/3/6 384/3/6 386/3/6
