# MagicaVoxel @ Ephtracy

# group
g Char008

# material
mtllib Char008.mtl
usemtl palette

# normals
vn -1 0 0
vn 1 0 0
vn 0 0 1
vn 0 0 -1
vn 0 -1 0
vn 0 1 0

# texcoords
vt 0.0605469 0.5
vt 0.123047 0.5
vt 0.373047 0.5
vt 0.705078 0.5
vt 0.958984 0.5
vt 0.982422 0.5
vt 0.986328 0.5
vt 0.990234 0.5

# verts
v -6 10 -0
v -6 10 -2
v -6 12 -0
v -6 12 -2
v -5 12 -0
v -5 12 -2
v -5 13 -0
v -5 13 -2
v -5 19 -0
v -5 19 -2
v -4 10 -0
v -4 10 -1
v -4 11 -0
v -4 11 -1
v -4 19 -0
v -4 19 -2
v -4 20 -0
v -4 20 -2
v -3 0 2
v -3 0 -2
v -3 1 2
v -3 1 -0
v -3 3 -0
v -3 3 -2
v -3 5 1
v -3 5 -0
v -3 5 -1
v -3 5 -2
v -3 9 -1
v -3 9 -2
v -3 10 -0
v -3 10 -1
v -3 11 -1
v -3 11 -2
v -3 12 1
v -3 12 -0
v -3 13 1
v -3 13 -0
v -3 16 2
v -3 16 1
v -3 18 2
v -3 18 1
v -3 18 -0
v -3 20 1
v -3 20 -0
v -1 20 -0
v -1 20 -2
v -1 21 -0
v -1 21 -2
v 1 0 2
v 1 0 -2
v 1 1 2
v 1 1 -0
v 1 3 -0
v 1 3 -2
v 1 5 1
v 1 5 -0
v 1 5 -1
v 1 5 -2
v 1 9 1
v 1 9 -1
v 5 10 -0
v 5 10 -2
v 5 11 -0
v 5 11 -2
v -5 10 -0
v -5 10 -2
v -5 11 -0
v -5 11 -2
v -1 0 2
v -1 0 -2
v -1 1 2
v -1 1 -0
v -1 3 -0
v -1 3 -2
v -1 5 1
v -1 5 -0
v -1 5 -1
v -1 5 -2
v -1 9 1
v -1 9 -1
v 1 20 -0
v 1 20 -2
v 1 21 -0
v 1 21 -2
v 3 0 2
v 3 0 -2
v 3 1 2
v 3 1 -0
v 3 3 -0
v 3 3 -2
v 3 5 1
v 3 5 -0
v 3 5 -1
v 3 5 -2
v 3 9 -1
v 3 9 -2
v 3 10 -0
v 3 10 -1
v 3 11 -1
v 3 11 -2
v 3 12 1
v 3 12 -0
v 3 13 1
v 3 13 -0
v 3 16 2
v 3 16 1
v 3 18 2
v 3 18 1
v 3 18 -0
v 3 20 1
v 3 20 -0
v 4 10 -0
v 4 10 -1
v 4 11 -0
v 4 11 -1
v 4 19 -0
v 4 19 -2
v 4 20 -0
v 4 20 -2
v 5 12 -0
v 5 12 -2
v 5 19 -0
v 5 19 -2
v 6 10 -0
v 6 10 -2
v 6 12 -0
v 6 12 -2
v -3 0 2
v -3 1 2
v -3 16 2
v -3 18 2
v -1 0 2
v -1 1 2
v 1 0 2
v 1 1 2
v 3 0 2
v 3 1 2
v 3 16 2
v 3 18 2
v -3 5 1
v -3 12 1
v -3 13 1
v -3 16 1
v -3 18 1
v -3 20 1
v -2 18 1
v -2 20 1
v -1 5 1
v -1 9 1
v -1 18 1
v -1 20 1
v 1 5 1
v 1 9 1
v 1 18 1
v 1 20 1
v 2 18 1
v 2 20 1
v 3 5 1
v 3 12 1
v 3 13 1
v 3 16 1
v 3 18 1
v 3 20 1
v -6 10 -0
v -6 12 -0
v -5 10 -0
v -5 11 -0
v -5 12 -0
v -5 13 -0
v -5 19 -0
v -4 10 -0
v -4 11 -0
v -4 19 -0
v -4 20 -0
v -3 1 -0
v -3 3 -0
v -3 5 -0
v -3 10 -0
v -3 12 -0
v -3 13 -0
v -3 18 -0
v -3 20 -0
v -1 1 -0
v -1 3 -0
v -1 5 -0
v -1 20 -0
v -1 21 -0
v 1 1 -0
v 1 3 -0
v 1 5 -0
v 1 20 -0
v 1 21 -0
v 3 1 -0
v 3 3 -0
v 3 5 -0
v 3 10 -0
v 3 12 -0
v 3 13 -0
v 3 18 -0
v 3 20 -0
v 4 10 -0
v 4 11 -0
v 4 19 -0
v 4 20 -0
v 5 10 -0
v 5 11 -0
v 5 12 -0
v 5 19 -0
v 6 10 -0
v 6 12 -0
v -4 10 -1
v -4 11 -1
v -3 5 -1
v -3 9 -1
v -3 10 -1
v -3 11 -1
v -1 5 -1
v -1 9 -1
v 1 5 -1
v 1 9 -1
v 3 5 -1
v 3 9 -1
v 3 10 -1
v 3 11 -1
v 4 10 -1
v 4 11 -1
v -6 10 -2
v -6 12 -2
v -5 10 -2
v -5 11 -2
v -5 12 -2
v -5 13 -2
v -5 19 -2
v -4 19 -2
v -4 20 -2
v -3 0 -2
v -3 3 -2
v -3 5 -2
v -3 9 -2
v -3 11 -2
v -3 12 -2
v -3 13 -2
v -3 18 -2
v -2 18 -2
v -2 20 -2
v -1 0 -2
v -1 3 -2
v -1 5 -2
v -1 11 -2
v -1 12 -2
v -1 18 -2
v -1 20 -2
v -1 21 -2
v 1 0 -2
v 1 3 -2
v 1 5 -2
v 1 11 -2
v 1 12 -2
v 1 18 -2
v 1 20 -2
v 1 21 -2
v 2 18 -2
v 2 20 -2
v 3 0 -2
v 3 3 -2
v 3 5 -2
v 3 9 -2
v 3 11 -2
v 3 12 -2
v 3 13 -2
v 3 18 -2
v 4 19 -2
v 4 20 -2
v 5 10 -2
v 5 11 -2
v 5 12 -2
v 5 19 -2
v 6 10 -2
v 6 12 -2
v -3 0 2
v -1 0 2
v 1 0 2
v 3 0 2
v -3 0 -2
v -1 0 -2
v 1 0 -2
v 3 0 -2
v -3 5 1
v -1 5 1
v 1 5 1
v 3 5 1
v -3 5 -0
v -1 5 -0
v 1 5 -0
v 3 5 -0
v -1 9 1
v 1 9 1
v -3 9 -1
v -1 9 -1
v 1 9 -1
v 3 9 -1
v -3 9 -2
v 3 9 -2
v -6 10 -0
v -5 10 -0
v -4 10 -0
v -3 10 -0
v 3 10 -0
v 4 10 -0
v 5 10 -0
v 6 10 -0
v -4 10 -1
v -3 10 -1
v 3 10 -1
v 4 10 -1
v -6 10 -2
v -5 10 -2
v 5 10 -2
v 6 10 -2
v -5 11 -0
v -4 11 -0
v 4 11 -0
v 5 11 -0
v -4 11 -1
v -3 11 -1
v 3 11 -1
v 4 11 -1
v -5 11 -2
v -3 11 -2
v 3 11 -2
v 5 11 -2
v -3 16 2
v 3 16 2
v -3 16 1
v 3 16 1
v -3 1 2
v -1 1 2
v 1 1 2
v 3 1 2
v -3 1 -0
v -1 1 -0
v 1 1 -0
v 3 1 -0
v -3 5 -1
v -1 5 -1
v 1 5 -1
v 3 5 -1
v -3 5 -2
v -1 5 -2
v 1 5 -2
v 3 5 -2
v -6 12 -0
v -5 12 -0
v 5 12 -0
v 6 12 -0
v -6 12 -2
v -5 12 -2
v 5 12 -2
v 6 12 -2
v -3 18 2
v 3 18 2
v -3 18 1
v -2 18 1
v -1 18 1
v 1 18 1
v 2 18 1
v 3 18 1
v -5 19 -0
v -4 19 -0
v 4 19 -0
v 5 19 -0
v -5 19 -2
v -4 19 -2
v 4 19 -2
v 5 19 -2
v -3 20 1
v -2 20 1
v -1 20 1
v 1 20 1
v 2 20 1
v 3 20 1
v -4 20 -0
v -3 20 -0
v -1 20 -0
v 1 20 -0
v 3 20 -0
v 4 20 -0
v -4 20 -2
v -2 20 -2
v -1 20 -2
v 1 20 -2
v 2 20 -2
v 4 20 -2
v -1 21 -0
v 1 21 -0
v -1 21 -2
v 1 21 -2

# faces
f 3/1/1 2/1/1 1/1/1
f 4/1/1 2/1/1 3/1/1
f 7/8/1 6/8/1 5/8/1
f 8/8/1 6/8/1 7/8/1
f 9/1/1 8/1/1 7/1/1
f 10/1/1 8/1/1 9/1/1
f 13/1/1 12/1/1 11/1/1
f 14/1/1 12/1/1 13/1/1
f 17/1/1 16/1/1 15/1/1
f 18/1/1 16/1/1 17/1/1
f 21/3/1 20/3/1 19/3/1
f 22/3/1 20/3/1 21/3/1
f 23/3/1 20/3/1 22/3/1
f 24/3/1 20/3/1 23/3/1
f 26/7/1 24/7/1 23/7/1
f 27/7/1 24/7/1 26/7/1
f 28/7/1 24/7/1 27/7/1
f 29/7/1 26/7/1 25/7/1
f 29/7/1 27/7/1 26/7/1
f 31/7/1 29/7/1 25/7/1
f 31/7/1 30/7/1 29/7/1
f 32/7/1 30/7/1 31/7/1
f 33/7/1 30/7/1 32/7/1
f 34/7/1 30/7/1 33/7/1
f 35/7/1 31/7/1 25/7/1
f 36/7/1 31/7/1 35/7/1
f 37/2/1 36/2/1 35/2/1
f 38/2/1 36/2/1 37/2/1
f 40/4/1 38/4/1 37/4/1
f 41/4/1 40/4/1 39/4/1
f 42/4/1 38/4/1 40/4/1
f 42/4/1 40/4/1 41/4/1
f 43/4/1 38/4/1 42/4/1
f 44/1/1 43/1/1 42/1/1
f 45/1/1 43/1/1 44/1/1
f 48/1/1 47/1/1 46/1/1
f 49/1/1 47/1/1 48/1/1
f 52/3/1 51/3/1 50/3/1
f 53/3/1 51/3/1 52/3/1
f 54/3/1 51/3/1 53/3/1
f 55/3/1 51/3/1 54/3/1
f 57/7/1 55/7/1 54/7/1
f 58/7/1 55/7/1 57/7/1
f 59/7/1 55/7/1 58/7/1
f 60/7/1 57/7/1 56/7/1
f 60/7/1 58/7/1 57/7/1
f 61/7/1 58/7/1 60/7/1
f 64/1/1 63/1/1 62/1/1
f 65/1/1 63/1/1 64/1/1
f 66/1/2 67/1/2 68/1/2
f 68/1/2 67/1/2 69/1/2
f 70/3/2 71/3/2 72/3/2
f 72/3/2 71/3/2 73/3/2
f 73/3/2 71/3/2 74/3/2
f 74/3/2 71/3/2 75/3/2
f 74/7/2 75/7/2 77/7/2
f 77/7/2 75/7/2 78/7/2
f 78/7/2 75/7/2 79/7/2
f 76/7/2 77/7/2 80/7/2
f 77/7/2 78/7/2 80/7/2
f 80/7/2 78/7/2 81/7/2
f 82/1/2 83/1/2 84/1/2
f 84/1/2 83/1/2 85/1/2
f 86/3/2 87/3/2 88/3/2
f 88/3/2 87/3/2 89/3/2
f 89/3/2 87/3/2 90/3/2
f 90/3/2 87/3/2 91/3/2
f 90/7/2 91/7/2 93/7/2
f 93/7/2 91/7/2 94/7/2
f 94/7/2 91/7/2 95/7/2
f 92/7/2 93/7/2 96/7/2
f 93/7/2 94/7/2 96/7/2
f 92/7/2 96/7/2 98/7/2
f 96/7/2 97/7/2 98/7/2
f 98/7/2 97/7/2 99/7/2
f 99/7/2 97/7/2 100/7/2
f 100/7/2 97/7/2 101/7/2
f 92/7/2 98/7/2 102/7/2
f 102/7/2 98/7/2 103/7/2
f 102/2/2 103/2/2 104/2/2
f 104/2/2 103/2/2 105/2/2
f 104/4/2 105/4/2 107/4/2
f 106/4/2 107/4/2 108/4/2
f 107/4/2 105/4/2 109/4/2
f 108/4/2 107/4/2 109/4/2
f 109/4/2 105/4/2 110/4/2
f 109/1/2 110/1/2 111/1/2
f 111/1/2 110/1/2 112/1/2
f 113/1/2 114/1/2 115/1/2
f 115/1/2 114/1/2 116/1/2
f 117/1/2 118/1/2 119/1/2
f 119/1/2 118/1/2 120/1/2
f 121/1/2 122/1/2 123/1/2
f 123/1/2 122/1/2 124/1/2
f 125/1/2 126/1/2 127/1/2
f 127/1/2 126/1/2 128/1/2
f 133/3/3 130/3/3 129/3/3
f 134/3/3 130/3/3 133/3/3
f 137/3/3 136/3/3 135/3/3
f 138/3/3 136/3/3 137/3/3
f 139/4/3 132/4/3 131/4/3
f 140/4/3 132/4/3 139/4/3
f 147/1/3 146/1/3 145/1/3
f 148/1/3 146/1/3 147/1/3
f 149/7/3 142/7/3 141/7/3
f 150/7/3 142/7/3 149/7/3
f 151/4/3 148/4/3 147/4/3
f 152/4/3 148/4/3 151/4/3
f 154/7/3 142/7/3 150/7/3
f 155/1/3 152/1/3 151/1/3
f 156/1/3 152/1/3 155/1/3
f 157/4/3 156/4/3 155/4/3
f 158/4/3 156/4/3 157/4/3
f 159/7/3 154/7/3 153/7/3
f 160/2/3 143/2/3 142/2/3
f 160/7/3 154/7/3 159/7/3
f 160/7/3 142/7/3 154/7/3
f 161/4/3 144/4/3 143/4/3
f 161/2/3 143/2/3 160/2/3
f 162/4/3 144/4/3 161/4/3
f 163/1/3 158/1/3 157/1/3
f 164/1/3 158/1/3 163/1/3
f 167/1/3 166/1/3 165/1/3
f 168/1/3 166/1/3 167/1/3
f 169/1/3 166/1/3 168/1/3
f 173/1/3 169/1/3 168/1/3
f 174/1/3 171/1/3 170/1/3
f 179/1/3 173/1/3 172/1/3
f 180/8/3 170/8/3 169/8/3
f 180/1/3 173/1/3 179/1/3
f 180/1/3 169/1/3 173/1/3
f 181/1/3 174/1/3 170/1/3
f 181/8/3 170/8/3 180/8/3
f 181/1/3 175/1/3 174/1/3
f 182/1/3 175/1/3 181/1/3
f 183/1/3 175/1/3 182/1/3
f 184/3/3 177/3/3 176/3/3
f 185/7/3 178/7/3 177/7/3
f 185/3/3 177/3/3 184/3/3
f 186/7/3 178/7/3 185/7/3
f 192/1/3 188/1/3 187/1/3
f 193/1/3 188/1/3 192/1/3
f 194/3/3 190/3/3 189/3/3
f 195/7/3 191/7/3 190/7/3
f 195/3/3 190/3/3 194/3/3
f 196/7/3 191/7/3 195/7/3
f 202/1/3 201/1/3 200/1/3
f 202/1/3 200/1/3 199/1/3
f 202/1/3 199/1/3 198/1/3
f 202/1/3 198/1/3 197/1/3
f 203/1/3 201/1/3 202/1/3
f 204/1/3 201/1/3 203/1/3
f 205/1/3 201/1/3 204/1/3
f 207/1/3 204/1/3 203/1/3
f 208/1/3 204/1/3 207/1/3
f 209/1/3 204/1/3 208/1/3
f 210/1/3 207/1/3 206/1/3
f 210/1/3 208/1/3 207/1/3
f 211/1/3 208/1/3 210/1/3
f 212/1/4 213/1/4 216/1/4
f 216/1/4 213/1/4 217/1/4
f 214/7/4 215/7/4 218/7/4
f 218/7/4 215/7/4 219/7/4
f 220/7/4 221/7/4 222/7/4
f 222/7/4 221/7/4 223/7/4
f 224/1/4 225/1/4 226/1/4
f 226/1/4 225/1/4 227/1/4
f 228/1/4 229/1/4 230/1/4
f 230/1/4 229/1/4 231/1/4
f 231/1/4 229/1/4 232/1/4
f 233/1/4 234/1/4 235/1/4
f 231/1/4 232/1/4 241/1/4
f 232/8/4 233/8/4 242/8/4
f 241/1/4 232/1/4 242/1/4
f 233/1/4 235/1/4 243/1/4
f 242/8/4 233/8/4 243/8/4
f 235/1/4 236/1/4 243/1/4
f 243/1/4 236/1/4 244/1/4
f 243/4/4 244/4/4 245/4/4
f 244/1/4 236/1/4 245/1/4
f 245/1/4 236/1/4 246/1/4
f 237/3/4 238/3/4 247/3/4
f 238/7/4 239/7/4 248/7/4
f 247/3/4 238/3/4 248/3/4
f 248/7/4 239/7/4 249/7/4
f 240/7/4 241/7/4 250/7/4
f 241/6/4 242/6/4 250/6/4
f 242/2/4 243/2/4 251/2/4
f 250/6/4 242/6/4 251/6/4
f 243/4/4 245/4/4 252/4/4
f 245/4/4 246/4/4 252/4/4
f 252/4/4 246/4/4 253/4/4
f 240/7/4 250/7/4 258/7/4
f 250/7/4 251/7/4 258/7/4
f 251/2/4 243/2/4 259/2/4
f 258/7/4 251/7/4 259/7/4
f 253/1/4 254/1/4 260/1/4
f 243/4/4 252/4/4 260/4/4
f 252/1/4 253/1/4 260/1/4
f 260/1/4 254/1/4 261/1/4
f 261/1/4 254/1/4 262/1/4
f 243/4/4 260/4/4 263/4/4
f 260/4/4 261/4/4 263/4/4
f 263/4/4 261/4/4 264/4/4
f 255/3/4 256/3/4 265/3/4
f 256/7/4 257/7/4 266/7/4
f 265/3/4 256/3/4 266/3/4
f 266/7/4 257/7/4 267/7/4
f 240/7/4 258/7/4 268/7/4
f 258/6/4 259/6/4 269/6/4
f 268/7/4 258/7/4 269/7/4
f 259/2/4 243/2/4 270/2/4
f 269/6/4 259/6/4 270/6/4
f 243/4/4 263/4/4 271/4/4
f 270/2/4 243/2/4 271/2/4
f 263/1/4 264/1/4 272/1/4
f 271/4/4 263/4/4 272/4/4
f 272/1/4 264/1/4 273/1/4
f 271/1/4 272/1/4 273/1/4
f 270/1/4 271/1/4 273/1/4
f 269/1/4 270/1/4 273/1/4
f 273/1/4 264/1/4 274/1/4
f 269/1/4 273/1/4 276/1/4
f 276/1/4 273/1/4 277/1/4
f 277/1/4 273/1/4 278/1/4
f 275/1/4 276/1/4 279/1/4
f 276/1/4 277/1/4 279/1/4
f 279/1/4 277/1/4 280/1/4
f 285/3/5 282/3/5 281/3/5
f 286/3/5 282/3/5 285/3/5
f 287/3/5 284/3/5 283/3/5
f 288/3/5 284/3/5 287/3/5
f 293/7/5 290/7/5 289/7/5
f 294/7/5 290/7/5 293/7/5
f 295/7/5 292/7/5 291/7/5
f 296/7/5 292/7/5 295/7/5
f 300/7/5 298/7/5 297/7/5
f 301/7/5 298/7/5 300/7/5
f 303/7/5 300/7/5 299/7/5
f 303/7/5 302/7/5 301/7/5
f 303/7/5 301/7/5 300/7/5
f 304/7/5 302/7/5 303/7/5
f 313/1/5 308/1/5 307/1/5
f 314/1/5 308/1/5 313/1/5
f 315/1/5 310/1/5 309/1/5
f 316/1/5 310/1/5 315/1/5
f 317/1/5 306/1/5 305/1/5
f 318/1/5 306/1/5 317/1/5
f 319/1/5 312/1/5 311/1/5
f 320/1/5 312/1/5 319/1/5
f 325/1/5 322/1/5 321/1/5
f 328/1/5 324/1/5 323/1/5
f 329/1/5 326/1/5 325/1/5
f 329/1/5 325/1/5 321/1/5
f 330/1/5 326/1/5 329/1/5
f 331/1/5 328/1/5 327/1/5
f 332/1/5 324/1/5 328/1/5
f 332/1/5 328/1/5 331/1/5
f 335/4/5 334/4/5 333/4/5
f 336/4/5 334/4/5 335/4/5
f 337/3/6 338/3/6 341/3/6
f 341/3/6 338/3/6 342/3/6
f 339/3/6 340/3/6 343/3/6
f 343/3/6 340/3/6 344/3/6
f 345/7/6 346/7/6 349/7/6
f 349/7/6 346/7/6 350/7/6
f 347/7/6 348/7/6 351/7/6
f 351/7/6 348/7/6 352/7/6
f 353/1/6 354/1/6 357/1/6
f 357/1/6 354/1/6 358/1/6
f 355/1/6 356/1/6 359/1/6
f 359/1/6 356/1/6 360/1/6
f 361/4/6 362/4/6 363/4/6
f 363/4/6 362/4/6 364/4/6
f 364/4/6 362/4/6 365/4/6
f 365/4/6 362/4/6 366/4/6
f 366/4/6 362/4/6 367/4/6
f 367/4/6 362/4/6 368/4/6
f 369/1/6 370/1/6 373/1/6
f 373/1/6 370/1/6 374/1/6
f 371/1/6 372/1/6 375/1/6
f 375/1/6 372/1/6 376/1/6
f 377/1/6 378/1/6 384/1/6
f 378/4/6 379/4/6 385/4/6
f 379/1/6 380/1/6 385/1/6
f 380/4/6 381/4/6 386/4/6
f 385/1/6 380/1/6 386/1/6
f 381/1/6 382/1/6 387/1/6
f 383/1/6 384/1/6 389/1/6
f 384/1/6 378/1/6 390/1/6
f 389/1/6 384/1/6 390/1/6
f 378/4/6 385/4/6 390/4/6
f 390/4/6 385/4/6 391/4/6
f 386/4/6 381/4/6 392/4/6
f 387/1/6 388/1/6 393/1/6
f 392/4/6 381/4/6 393/4/6
f 381/1/6 387/1/6 393/1/6
f 393/1/6 388/1/6 394/1/6
f 395/1/6 396/1/6 397/1/6
f 397/1/6 396/1/6 398/1/6
