# MagicaVoxel @ Ephtracy

# group
g compass

# material
mtllib compass.mtl
usemtl palette

# normals
vn -1 0 0
vn 1 0 0
vn 0 0 1
vn 0 0 -1
vn 0 -1 0
vn 0 1 0

# texcoords
vt 0.845703 0.5
vt 0.958984 0.5
vt 0.994141 0.5

# verts
v -14 0 1
v -14 0 -2
v -14 1 1
v -14 1 -2
v -13 0 2
v -13 0 1
v -13 0 -2
v -13 0 -3
v -13 1 2
v -13 1 1
v -13 1 -2
v -13 1 -3
v -12 0 3
v -12 0 2
v -12 0 -3
v -12 0 -4
v -12 1 3
v -12 1 2
v -12 1 -3
v -12 1 -4
v -11 0 4
v -11 0 3
v -11 0 -4
v -11 0 -5
v -11 1 4
v -11 1 3
v -11 1 -4
v -11 1 -5
v -4 0 10
v -4 0 7
v -4 0 -8
v -4 0 -11
v -4 1 10
v -4 1 7
v -4 1 -8
v -4 1 -11
v -3 0 11
v -3 0 10
v -3 0 -11
v -3 0 -12
v -3 1 11
v -3 1 10
v -3 1 -11
v -3 1 -12
v -2 0 12
v -2 0 11
v -2 0 7
v -2 0 2
v -2 0 -3
v -2 0 -8
v -2 0 -12
v -2 0 -13
v -2 1 12
v -2 1 11
v -2 1 7
v -2 1 2
v -2 1 -3
v -2 1 -8
v -2 1 -12
v -2 1 -13
v -1 0 13
v -1 0 12
v -1 0 -13
v -1 0 -14
v -1 1 13
v -1 1 12
v -1 1 -13
v -1 1 -14
v 9 0 4
v 9 0 2
v 9 0 -3
v 9 0 -5
v 9 1 4
v 9 1 2
v 9 1 -3
v 9 1 -5
v -8 0 4
v -8 0 2
v -8 0 -3
v -8 0 -5
v -8 1 4
v -8 1 2
v -8 1 -3
v -8 1 -5
v 2 0 13
v 2 0 12
v 2 0 -13
v 2 0 -14
v 2 1 13
v 2 1 12
v 2 1 -13
v 2 1 -14
v 3 0 12
v 3 0 11
v 3 0 7
v 3 0 2
v 3 0 -3
v 3 0 -8
v 3 0 -12
v 3 0 -13
v 3 1 12
v 3 1 11
v 3 1 7
v 3 1 2
v 3 1 -3
v 3 1 -8
v 3 1 -12
v 3 1 -13
v 4 0 11
v 4 0 10
v 4 0 -11
v 4 0 -12
v 4 1 11
v 4 1 10
v 4 1 -11
v 4 1 -12
v 5 0 10
v 5 0 7
v 5 0 -8
v 5 0 -11
v 5 1 10
v 5 1 7
v 5 1 -8
v 5 1 -11
v 12 0 4
v 12 0 3
v 12 0 -4
v 12 0 -5
v 12 1 4
v 12 1 3
v 12 1 -4
v 12 1 -5
v 13 0 3
v 13 0 2
v 13 0 -3
v 13 0 -4
v 13 1 3
v 13 1 2
v 13 1 -3
v 13 1 -4
v 14 0 2
v 14 0 1
v 14 0 -2
v 14 0 -3
v 14 1 2
v 14 1 1
v 14 1 -2
v 14 1 -3
v 15 0 1
v 15 0 -2
v 15 1 1
v 15 1 -2
v -1 0 13
v -1 1 13
v 2 0 13
v 2 1 13
v -2 0 12
v -2 1 12
v -1 0 12
v -1 1 12
v 2 0 12
v 2 1 12
v 3 0 12
v 3 1 12
v -3 0 11
v -3 1 11
v -2 0 11
v -2 1 11
v 3 0 11
v 3 1 11
v 4 0 11
v 4 1 11
v -4 0 10
v -4 1 10
v -3 0 10
v -3 1 10
v 4 0 10
v 4 1 10
v 5 0 10
v 5 1 10
v -11 0 4
v -11 1 4
v -8 0 4
v -8 1 4
v 9 0 4
v 9 1 4
v 12 0 4
v 12 1 4
v -12 0 3
v -12 1 3
v -11 0 3
v -11 1 3
v 12 0 3
v 12 1 3
v 13 0 3
v 13 1 3
v -13 0 2
v -13 1 2
v -12 0 2
v -12 1 2
v -8 0 2
v -8 1 2
v -2 0 2
v -2 1 2
v 3 0 2
v 3 1 2
v 9 0 2
v 9 1 2
v 13 0 2
v 13 1 2
v 14 0 2
v 14 1 2
v -14 0 1
v -14 1 1
v -13 0 1
v -13 1 1
v 14 0 1
v 14 1 1
v 15 0 1
v 15 1 1
v -4 0 -8
v -4 1 -8
v -2 0 -8
v -2 1 -8
v 3 0 -8
v 3 1 -8
v 5 0 -8
v 5 1 -8
v -4 0 7
v -4 1 7
v -2 0 7
v -2 1 7
v 3 0 7
v 3 1 7
v 5 0 7
v 5 1 7
v -14 0 -2
v -14 1 -2
v -13 0 -2
v -13 1 -2
v 14 0 -2
v 14 1 -2
v 15 0 -2
v 15 1 -2
v -13 0 -3
v -13 1 -3
v -12 0 -3
v -12 1 -3
v -8 0 -3
v -8 1 -3
v -2 0 -3
v -2 1 -3
v 3 0 -3
v 3 1 -3
v 9 0 -3
v 9 1 -3
v 13 0 -3
v 13 1 -3
v 14 0 -3
v 14 1 -3
v -12 0 -4
v -12 1 -4
v -11 0 -4
v -11 1 -4
v 12 0 -4
v 12 1 -4
v 13 0 -4
v 13 1 -4
v -11 0 -5
v -11 1 -5
v -8 0 -5
v -8 1 -5
v 9 0 -5
v 9 1 -5
v 12 0 -5
v 12 1 -5
v -4 0 -11
v -4 1 -11
v -3 0 -11
v -3 1 -11
v 4 0 -11
v 4 1 -11
v 5 0 -11
v 5 1 -11
v -3 0 -12
v -3 1 -12
v -2 0 -12
v -2 1 -12
v 3 0 -12
v 3 1 -12
v 4 0 -12
v 4 1 -12
v -2 0 -13
v -2 1 -13
v -1 0 -13
v -1 1 -13
v 2 0 -13
v 2 1 -13
v 3 0 -13
v 3 1 -13
v -1 0 -14
v -1 1 -14
v 2 0 -14
v 2 1 -14
v -1 0 13
v 2 0 13
v -2 0 12
v -1 0 12
v 0 0 12
v 1 0 12
v 2 0 12
v 3 0 12
v -3 0 11
v -2 0 11
v -1 0 11
v 0 0 11
v 1 0 11
v 2 0 11
v 3 0 11
v 4 0 11
v -4 0 10
v -3 0 10
v -2 0 10
v -1 0 10
v 2 0 10
v 3 0 10
v 4 0 10
v 5 0 10
v -3 0 9
v -2 0 9
v 3 0 9
v 4 0 9
v -3 0 8
v -1 0 8
v 2 0 8
v 4 0 8
v -4 0 7
v -2 0 7
v 3 0 7
v 5 0 7
v -11 0 4
v -8 0 4
v 9 0 4
v 12 0 4
v -12 0 3
v -11 0 3
v -10 0 3
v -9 0 3
v 10 0 3
v 11 0 3
v 12 0 3
v 13 0 3
v -13 0 2
v -12 0 2
v -11 0 2
v -10 0 2
v -8 0 2
v -2 0 2
v 3 0 2
v 9 0 2
v 11 0 2
v 12 0 2
v 13 0 2
v 14 0 2
v -14 0 1
v -13 0 1
v -12 0 1
v -11 0 1
v -9 0 1
v -1 0 1
v 2 0 1
v 10 0 1
v 12 0 1
v 13 0 1
v 14 0 1
v 15 0 1
v -13 0 -0
v -12 0 -0
v 13 0 -0
v 14 0 -0
v -13 0 -1
v -12 0 -1
v 13 0 -1
v 14 0 -1
v -14 0 -2
v -13 0 -2
v -12 0 -2
v -11 0 -2
v -9 0 -2
v -1 0 -2
v 2 0 -2
v 10 0 -2
v 12 0 -2
v 13 0 -2
v 14 0 -2
v 15 0 -2
v -13 0 -3
v -12 0 -3
v -11 0 -3
v -10 0 -3
v -8 0 -3
v -2 0 -3
v 3 0 -3
v 9 0 -3
v 11 0 -3
v 12 0 -3
v 13 0 -3
v 14 0 -3
v -12 0 -4
v -11 0 -4
v -10 0 -4
v -9 0 -4
v 10 0 -4
v 11 0 -4
v 12 0 -4
v 13 0 -4
v -11 0 -5
v -8 0 -5
v 9 0 -5
v 12 0 -5
v -4 0 -8
v -2 0 -8
v 3 0 -8
v 5 0 -8
v -3 0 -9
v -1 0 -9
v 2 0 -9
v 4 0 -9
v -3 0 -10
v -2 0 -10
v 3 0 -10
v 4 0 -10
v -4 0 -11
v -3 0 -11
v -2 0 -11
v -1 0 -11
v 2 0 -11
v 3 0 -11
v 4 0 -11
v 5 0 -11
v -3 0 -12
v -2 0 -12
v -1 0 -12
v 0 0 -12
v 1 0 -12
v 2 0 -12
v 3 0 -12
v 4 0 -12
v -2 0 -13
v -1 0 -13
v 0 0 -13
v 1 0 -13
v 2 0 -13
v 3 0 -13
v -1 0 -14
v 2 0 -14
v -1 1 13
v 2 1 13
v -2 1 12
v -1 1 12
v 0 1 12
v 1 1 12
v 2 1 12
v 3 1 12
v -3 1 11
v -2 1 11
v -1 1 11
v 0 1 11
v 1 1 11
v 2 1 11
v 3 1 11
v 4 1 11
v -4 1 10
v -3 1 10
v -2 1 10
v -1 1 10
v 2 1 10
v 3 1 10
v 4 1 10
v 5 1 10
v -3 1 9
v -2 1 9
v 3 1 9
v 4 1 9
v -3 1 8
v -1 1 8
v 2 1 8
v 4 1 8
v -4 1 7
v -2 1 7
v 3 1 7
v 5 1 7
v -11 1 4
v -8 1 4
v 9 1 4
v 12 1 4
v -12 1 3
v -11 1 3
v -10 1 3
v -9 1 3
v 10 1 3
v 11 1 3
v 12 1 3
v 13 1 3
v -13 1 2
v -12 1 2
v -11 1 2
v -10 1 2
v -8 1 2
v -2 1 2
v 3 1 2
v 9 1 2
v 11 1 2
v 12 1 2
v 13 1 2
v 14 1 2
v -14 1 1
v -13 1 1
v -12 1 1
v -11 1 1
v -9 1 1
v -1 1 1
v 2 1 1
v 10 1 1
v 12 1 1
v 13 1 1
v 14 1 1
v 15 1 1
v -13 1 -0
v -12 1 -0
v 13 1 -0
v 14 1 -0
v -13 1 -1
v -12 1 -1
v 13 1 -1
v 14 1 -1
v -14 1 -2
v -13 1 -2
v -12 1 -2
v -11 1 -2
v -9 1 -2
v -1 1 -2
v 2 1 -2
v 10 1 -2
v 12 1 -2
v 13 1 -2
v 14 1 -2
v 15 1 -2
v -13 1 -3
v -12 1 -3
v -11 1 -3
v -10 1 -3
v -8 1 -3
v -2 1 -3
v 3 1 -3
v 9 1 -3
v 11 1 -3
v 12 1 -3
v 13 1 -3
v 14 1 -3
v -12 1 -4
v -11 1 -4
v -10 1 -4
v -9 1 -4
v 10 1 -4
v 11 1 -4
v 12 1 -4
v 13 1 -4
v -11 1 -5
v -8 1 -5
v 9 1 -5
v 12 1 -5
v -4 1 -8
v -2 1 -8
v 3 1 -8
v 5 1 -8
v -3 1 -9
v -1 1 -9
v 2 1 -9
v 4 1 -9
v -3 1 -10
v -2 1 -10
v 3 1 -10
v 4 1 -10
v -4 1 -11
v -3 1 -11
v -2 1 -11
v -1 1 -11
v 2 1 -11
v 3 1 -11
v 4 1 -11
v 5 1 -11
v -3 1 -12
v -2 1 -12
v -1 1 -12
v 0 1 -12
v 1 1 -12
v 2 1 -12
v 3 1 -12
v 4 1 -12
v -2 1 -13
v -1 1 -13
v 0 1 -13
v 1 1 -13
v 2 1 -13
v 3 1 -13
v -1 1 -14
v 2 1 -14

# faces
f 3/3/1 2/3/1 1/3/1
f 4/3/1 2/3/1 3/3/1
f 9/3/1 6/3/1 5/3/1
f 10/3/1 6/3/1 9/3/1
f 11/3/1 8/3/1 7/3/1
f 12/3/1 8/3/1 11/3/1
f 17/3/1 14/3/1 13/3/1
f 18/3/1 14/3/1 17/3/1
f 19/3/1 16/3/1 15/3/1
f 20/3/1 16/3/1 19/3/1
f 25/3/1 22/3/1 21/3/1
f 26/3/1 22/3/1 25/3/1
f 27/3/1 24/3/1 23/3/1
f 28/3/1 24/3/1 27/3/1
f 33/3/1 30/3/1 29/3/1
f 34/3/1 30/3/1 33/3/1
f 35/3/1 32/3/1 31/3/1
f 36/3/1 32/3/1 35/3/1
f 41/3/1 38/3/1 37/3/1
f 42/3/1 38/3/1 41/3/1
f 43/3/1 40/3/1 39/3/1
f 44/3/1 40/3/1 43/3/1
f 53/3/1 46/3/1 45/3/1
f 54/3/1 46/3/1 53/3/1
f 55/3/1 48/3/1 47/3/1
f 56/3/1 48/3/1 55/3/1
f 57/3/1 50/3/1 49/3/1
f 58/3/1 50/3/1 57/3/1
f 59/3/1 52/3/1 51/3/1
f 60/3/1 52/3/1 59/3/1
f 65/3/1 62/3/1 61/3/1
f 66/3/1 62/3/1 65/3/1
f 67/3/1 64/3/1 63/3/1
f 68/3/1 64/3/1 67/3/1
f 73/3/1 70/3/1 69/3/1
f 74/3/1 70/3/1 73/3/1
f 75/3/1 72/3/1 71/3/1
f 76/3/1 72/3/1 75/3/1
f 77/3/2 78/3/2 81/3/2
f 81/3/2 78/3/2 82/3/2
f 79/3/2 80/3/2 83/3/2
f 83/3/2 80/3/2 84/3/2
f 85/3/2 86/3/2 89/3/2
f 89/3/2 86/3/2 90/3/2
f 87/3/2 88/3/2 91/3/2
f 91/3/2 88/3/2 92/3/2
f 93/3/2 94/3/2 101/3/2
f 101/3/2 94/3/2 102/3/2
f 95/3/2 96/3/2 103/3/2
f 103/3/2 96/3/2 104/3/2
f 97/3/2 98/3/2 105/3/2
f 105/3/2 98/3/2 106/3/2
f 99/3/2 100/3/2 107/3/2
f 107/3/2 100/3/2 108/3/2
f 109/3/2 110/3/2 113/3/2
f 113/3/2 110/3/2 114/3/2
f 111/3/2 112/3/2 115/3/2
f 115/3/2 112/3/2 116/3/2
f 117/3/2 118/3/2 121/3/2
f 121/3/2 118/3/2 122/3/2
f 119/3/2 120/3/2 123/3/2
f 123/3/2 120/3/2 124/3/2
f 125/3/2 126/3/2 129/3/2
f 129/3/2 126/3/2 130/3/2
f 127/3/2 128/3/2 131/3/2
f 131/3/2 128/3/2 132/3/2
f 133/3/2 134/3/2 137/3/2
f 137/3/2 134/3/2 138/3/2
f 135/3/2 136/3/2 139/3/2
f 139/3/2 136/3/2 140/3/2
f 141/3/2 142/3/2 145/3/2
f 145/3/2 142/3/2 146/3/2
f 143/3/2 144/3/2 147/3/2
f 147/3/2 144/3/2 148/3/2
f 149/3/2 150/3/2 151/3/2
f 151/3/2 150/3/2 152/3/2
f 155/3/3 154/3/3 153/3/3
f 156/3/3 154/3/3 155/3/3
f 159/3/3 158/3/3 157/3/3
f 160/3/3 158/3/3 159/3/3
f 163/3/3 162/3/3 161/3/3
f 164/3/3 162/3/3 163/3/3
f 167/3/3 166/3/3 165/3/3
f 168/3/3 166/3/3 167/3/3
f 171/3/3 170/3/3 169/3/3
f 172/3/3 170/3/3 171/3/3
f 175/3/3 174/3/3 173/3/3
f 176/3/3 174/3/3 175/3/3
f 179/3/3 178/3/3 177/3/3
f 180/3/3 178/3/3 179/3/3
f 183/3/3 182/3/3 181/3/3
f 184/3/3 182/3/3 183/3/3
f 187/3/3 186/3/3 185/3/3
f 188/3/3 186/3/3 187/3/3
f 191/3/3 190/3/3 189/3/3
f 192/3/3 190/3/3 191/3/3
f 195/3/3 194/3/3 193/3/3
f 196/3/3 194/3/3 195/3/3
f 199/3/3 198/3/3 197/3/3
f 200/3/3 198/3/3 199/3/3
f 203/3/3 202/3/3 201/3/3
f 204/3/3 202/3/3 203/3/3
f 207/3/3 206/3/3 205/3/3
f 208/3/3 206/3/3 207/3/3
f 211/3/3 210/3/3 209/3/3
f 212/3/3 210/3/3 211/3/3
f 215/3/3 214/3/3 213/3/3
f 216/3/3 214/3/3 215/3/3
f 219/3/3 218/3/3 217/3/3
f 220/3/3 218/3/3 219/3/3
f 223/3/3 222/3/3 221/3/3
f 224/3/3 222/3/3 223/3/3
f 227/3/3 226/3/3 225/3/3
f 228/3/3 226/3/3 227/3/3
f 229/3/4 230/3/4 231/3/4
f 231/3/4 230/3/4 232/3/4
f 233/3/4 234/3/4 235/3/4
f 235/3/4 234/3/4 236/3/4
f 237/3/4 238/3/4 239/3/4
f 239/3/4 238/3/4 240/3/4
f 241/3/4 242/3/4 243/3/4
f 243/3/4 242/3/4 244/3/4
f 245/3/4 246/3/4 247/3/4
f 247/3/4 246/3/4 248/3/4
f 249/3/4 250/3/4 251/3/4
f 251/3/4 250/3/4 252/3/4
f 253/3/4 254/3/4 255/3/4
f 255/3/4 254/3/4 256/3/4
f 257/3/4 258/3/4 259/3/4
f 259/3/4 258/3/4 260/3/4
f 261/3/4 262/3/4 263/3/4
f 263/3/4 262/3/4 264/3/4
f 265/3/4 266/3/4 267/3/4
f 267/3/4 266/3/4 268/3/4
f 269/3/4 270/3/4 271/3/4
f 271/3/4 270/3/4 272/3/4
f 273/3/4 274/3/4 275/3/4
f 275/3/4 274/3/4 276/3/4
f 277/3/4 278/3/4 279/3/4
f 279/3/4 278/3/4 280/3/4
f 281/3/4 282/3/4 283/3/4
f 283/3/4 282/3/4 284/3/4
f 285/3/4 286/3/4 287/3/4
f 287/3/4 286/3/4 288/3/4
f 289/3/4 290/3/4 291/3/4
f 291/3/4 290/3/4 292/3/4
f 293/3/4 294/3/4 295/3/4
f 295/3/4 294/3/4 296/3/4
f 297/3/4 298/3/4 299/3/4
f 299/3/4 298/3/4 300/3/4
f 301/3/4 302/3/4 303/3/4
f 303/3/4 302/3/4 304/3/4
f 308/3/5 306/3/5 305/3/5
f 309/3/5 306/3/5 308/3/5
f 310/3/5 306/3/5 309/3/5
f 311/3/5 306/3/5 310/3/5
f 314/3/5 308/3/5 307/3/5
f 314/3/5 309/3/5 308/3/5
f 315/3/5 309/3/5 314/3/5
f 316/2/5 310/2/5 309/2/5
f 316/3/5 309/3/5 315/3/5
f 317/3/5 312/3/5 311/3/5
f 317/2/5 310/2/5 316/2/5
f 317/3/5 311/3/5 310/3/5
f 318/3/5 312/3/5 317/3/5
f 319/3/5 312/3/5 318/3/5
f 322/3/5 314/3/5 313/3/5
f 322/3/5 315/3/5 314/3/5
f 323/3/5 315/3/5 322/3/5
f 324/2/5 316/2/5 315/2/5
f 324/3/5 315/3/5 323/3/5
f 324/2/5 317/2/5 316/2/5
f 324/2/5 318/2/5 317/2/5
f 325/3/5 320/3/5 319/3/5
f 325/2/5 318/2/5 324/2/5
f 325/3/5 319/3/5 318/3/5
f 326/3/5 320/3/5 325/3/5
f 327/3/5 320/3/5 326/3/5
f 329/3/5 323/3/5 322/3/5
f 329/3/5 322/3/5 321/3/5
f 330/2/5 324/2/5 323/2/5
f 330/3/5 323/3/5 329/3/5
f 330/2/5 325/2/5 324/2/5
f 330/2/5 326/2/5 325/2/5
f 331/3/5 328/3/5 327/3/5
f 331/2/5 326/2/5 330/2/5
f 331/3/5 327/3/5 326/3/5
f 332/3/5 328/3/5 331/3/5
f 333/2/5 330/2/5 329/2/5
f 333/3/5 329/3/5 321/3/5
f 333/2/5 332/2/5 331/2/5
f 333/2/5 331/2/5 330/2/5
f 334/2/5 332/2/5 333/2/5
f 335/2/5 332/2/5 334/2/5
f 336/3/5 328/3/5 332/3/5
f 336/2/5 332/2/5 335/2/5
f 337/3/5 333/3/5 321/3/5
f 337/3/5 334/3/5 333/3/5
f 338/3/5 334/3/5 337/3/5
f 339/3/5 336/3/5 335/3/5
f 340/3/5 328/3/5 336/3/5
f 340/3/5 336/3/5 339/3/5
f 346/3/5 342/3/5 341/3/5
f 347/3/5 342/3/5 346/3/5
f 348/3/5 342/3/5 347/3/5
f 349/3/5 344/3/5 343/3/5
f 350/3/5 344/3/5 349/3/5
f 351/3/5 344/3/5 350/3/5
f 354/3/5 346/3/5 345/3/5
f 354/3/5 347/3/5 346/3/5
f 355/3/5 347/3/5 354/3/5
f 356/2/5 348/2/5 347/2/5
f 356/3/5 347/3/5 355/3/5
f 357/3/5 342/3/5 348/3/5
f 358/3/5 334/3/5 338/3/5
f 359/3/5 339/3/5 335/3/5
f 360/3/5 349/3/5 343/3/5
f 361/3/5 352/3/5 351/3/5
f 361/3/5 351/3/5 350/3/5
f 361/2/5 350/2/5 349/2/5
f 362/3/5 352/3/5 361/3/5
f 363/3/5 352/3/5 362/3/5
f 366/3/5 355/3/5 354/3/5
f 366/3/5 354/3/5 353/3/5
f 367/3/5 355/3/5 366/3/5
f 368/2/5 356/2/5 355/2/5
f 368/3/5 355/3/5 367/3/5
f 369/3/5 358/3/5 357/3/5
f 369/2/5 356/2/5 368/2/5
f 369/3/5 357/3/5 348/3/5
f 369/2/5 348/2/5 356/2/5
f 370/2/5 335/2/5 334/2/5
f 370/3/5 358/3/5 369/3/5
f 370/3/5 334/3/5 358/3/5
f 371/3/5 360/3/5 359/3/5
f 371/2/5 335/2/5 370/2/5
f 371/3/5 359/3/5 335/3/5
f 372/3/5 349/3/5 360/3/5
f 372/3/5 360/3/5 371/3/5
f 372/2/5 361/2/5 349/2/5
f 372/2/5 362/2/5 361/2/5
f 373/3/5 364/3/5 363/3/5
f 373/2/5 362/2/5 372/2/5
f 373/3/5 363/3/5 362/3/5
f 374/3/5 364/3/5 373/3/5
f 375/3/5 364/3/5 374/3/5
f 377/3/5 366/3/5 365/3/5
f 377/3/5 367/3/5 366/3/5
f 378/2/5 369/2/5 368/2/5
f 378/3/5 367/3/5 377/3/5
f 378/2/5 368/2/5 367/2/5
f 378/2/5 374/2/5 373/2/5
f 378/2/5 373/2/5 372/2/5
f 378/2/5 370/2/5 369/2/5
f 378/2/5 371/2/5 370/2/5
f 378/2/5 372/2/5 371/2/5
f 379/3/5 375/3/5 374/3/5
f 379/2/5 374/2/5 378/2/5
f 379/3/5 376/3/5 375/3/5
f 380/3/5 376/3/5 379/3/5
f 381/3/5 377/3/5 365/3/5
f 381/2/5 378/2/5 377/2/5
f 381/2/5 380/2/5 379/2/5
f 381/2/5 379/2/5 378/2/5
f 382/2/5 380/2/5 381/2/5
f 383/2/5 380/2/5 382/2/5
f 384/3/5 376/3/5 380/3/5
f 384/2/5 380/2/5 383/2/5
f 385/3/5 381/3/5 365/3/5
f 385/3/5 382/3/5 381/3/5
f 386/3/5 382/3/5 385/3/5
f 387/2/5 383/2/5 382/2/5
f 387/3/5 382/3/5 386/3/5
f 388/2/5 383/2/5 387/2/5
f 389/2/5 383/2/5 388/2/5
f 390/2/5 383/2/5 389/2/5
f 391/2/5 383/2/5 390/2/5
f 392/2/5 383/2/5 391/2/5
f 393/2/5 383/2/5 392/2/5
f 394/3/5 384/3/5 383/3/5
f 394/2/5 383/2/5 393/2/5
f 395/3/5 376/3/5 384/3/5
f 395/3/5 384/3/5 394/3/5
f 396/3/5 376/3/5 395/3/5
f 397/3/5 387/3/5 386/3/5
f 397/3/5 388/3/5 387/3/5
f 398/3/5 388/3/5 397/3/5
f 399/2/5 389/2/5 388/2/5
f 399/3/5 388/3/5 398/3/5
f 400/2/5 389/2/5 399/2/5
f 401/3/5 390/3/5 389/3/5
f 402/3/5 390/3/5 401/3/5
f 403/3/5 392/3/5 391/3/5
f 404/3/5 392/3/5 403/3/5
f 405/2/5 393/2/5 392/2/5
f 406/3/5 394/3/5 393/3/5
f 406/2/5 393/2/5 405/2/5
f 406/3/5 395/3/5 394/3/5
f 407/3/5 395/3/5 406/3/5
f 408/3/5 395/3/5 407/3/5
f 409/3/5 399/3/5 398/3/5
f 409/3/5 400/3/5 399/3/5
f 410/3/5 400/3/5 409/3/5
f 411/2/5 389/2/5 400/2/5
f 411/3/5 400/3/5 410/3/5
f 412/3/5 401/3/5 389/3/5
f 412/2/5 389/2/5 411/2/5
f 413/2/5 405/2/5 392/2/5
f 413/3/5 392/3/5 404/3/5
f 414/3/5 407/3/5 406/3/5
f 414/2/5 405/2/5 413/2/5
f 414/3/5 406/3/5 405/3/5
f 415/3/5 407/3/5 414/3/5
f 416/3/5 407/3/5 415/3/5
f 417/3/5 412/3/5 411/3/5
f 417/3/5 411/3/5 410/3/5
f 418/3/5 401/3/5 412/3/5
f 418/3/5 412/3/5 417/3/5
f 419/3/5 413/3/5 404/3/5
f 419/3/5 415/3/5 414/3/5
f 419/3/5 414/3/5 413/3/5
f 420/3/5 415/3/5 419/3/5
f 422/3/5 390/3/5 402/3/5
f 423/3/5 403/3/5 391/3/5
f 425/3/5 422/3/5 421/3/5
f 426/1/5 391/1/5 390/1/5
f 426/3/5 422/3/5 425/3/5
f 426/3/5 390/3/5 422/3/5
f 427/3/5 424/3/5 423/3/5
f 427/1/5 391/1/5 426/1/5
f 427/3/5 423/3/5 391/3/5
f 428/3/5 424/3/5 427/3/5
f 429/1/5 426/1/5 425/1/5
f 429/3/5 425/3/5 421/3/5
f 429/1/5 428/1/5 427/1/5
f 429/1/5 427/1/5 426/1/5
f 430/1/5 428/1/5 429/1/5
f 431/1/5 428/1/5 430/1/5
f 432/3/5 424/3/5 428/3/5
f 432/1/5 428/1/5 431/1/5
f 433/3/5 429/3/5 421/3/5
f 433/3/5 430/3/5 429/3/5
f 434/3/5 430/3/5 433/3/5
f 435/1/5 431/1/5 430/1/5
f 435/3/5 430/3/5 434/3/5
f 436/1/5 431/1/5 435/1/5
f 437/1/5 431/1/5 436/1/5
f 438/3/5 432/3/5 431/3/5
f 438/1/5 431/1/5 437/1/5
f 439/3/5 424/3/5 432/3/5
f 439/3/5 432/3/5 438/3/5
f 440/3/5 424/3/5 439/3/5
f 441/3/5 435/3/5 434/3/5
f 441/3/5 436/3/5 435/3/5
f 442/3/5 436/3/5 441/3/5
f 443/1/5 437/1/5 436/1/5
f 443/3/5 436/3/5 442/3/5
f 444/1/5 437/1/5 443/1/5
f 445/1/5 437/1/5 444/1/5
f 446/3/5 438/3/5 437/3/5
f 446/1/5 437/1/5 445/1/5
f 446/3/5 439/3/5 438/3/5
f 447/3/5 439/3/5 446/3/5
f 448/3/5 439/3/5 447/3/5
f 449/3/5 444/3/5 443/3/5
f 449/3/5 443/3/5 442/3/5
f 450/3/5 444/3/5 449/3/5
f 451/1/5 445/1/5 444/1/5
f 451/3/5 444/3/5 450/3/5
f 452/3/5 447/3/5 446/3/5
f 452/1/5 445/1/5 451/1/5
f 452/3/5 446/3/5 445/3/5
f 453/3/5 447/3/5 452/3/5
f 454/3/5 447/3/5 453/3/5
f 455/3/5 451/3/5 450/3/5
f 455/3/5 453/3/5 452/3/5
f 455/3/5 452/3/5 451/3/5
f 456/3/5 453/3/5 455/3/5
f 457/3/6 458/3/6 460/3/6
f 460/3/6 458/3/6 461/3/6
f 461/3/6 458/3/6 462/3/6
f 462/3/6 458/3/6 463/3/6
f 459/3/6 460/3/6 466/3/6
f 460/3/6 461/3/6 466/3/6
f 466/3/6 461/3/6 467/3/6
f 461/2/6 462/2/6 468/2/6
f 467/3/6 461/3/6 468/3/6
f 463/3/6 464/3/6 469/3/6
f 468/2/6 462/2/6 469/2/6
f 462/3/6 463/3/6 469/3/6
f 469/3/6 464/3/6 470/3/6
f 470/3/6 464/3/6 471/3/6
f 465/3/6 466/3/6 474/3/6
f 466/3/6 467/3/6 474/3/6
f 474/3/6 467/3/6 475/3/6
f 467/2/6 468/2/6 476/2/6
f 475/3/6 467/3/6 476/3/6
f 468/2/6 469/2/6 476/2/6
f 469/2/6 470/2/6 476/2/6
f 471/3/6 472/3/6 477/3/6
f 476/2/6 470/2/6 477/2/6
f 470/3/6 471/3/6 477/3/6
f 477/3/6 472/3/6 478/3/6
f 478/3/6 472/3/6 479/3/6
f 474/3/6 475/3/6 481/3/6
f 473/3/6 474/3/6 481/3/6
f 475/2/6 476/2/6 482/2/6
f 481/3/6 475/3/6 482/3/6
f 476/2/6 477/2/6 482/2/6
f 477/2/6 478/2/6 482/2/6
f 479/3/6 480/3/6 483/3/6
f 482/2/6 478/2/6 483/2/6
f 478/3/6 479/3/6 483/3/6
f 483/3/6 480/3/6 484/3/6
f 481/2/6 482/2/6 485/2/6
f 473/3/6 481/3/6 485/3/6
f 483/2/6 484/2/6 485/2/6
f 482/2/6 483/2/6 485/2/6
f 485/2/6 484/2/6 486/2/6
f 486/2/6 484/2/6 487/2/6
f 484/3/6 480/3/6 488/3/6
f 487/2/6 484/2/6 488/2/6
f 473/3/6 485/3/6 489/3/6
f 485/3/6 486/3/6 489/3/6
f 489/3/6 486/3/6 490/3/6
f 487/3/6 488/3/6 491/3/6
f 488/3/6 480/3/6 492/3/6
f 491/3/6 488/3/6 492/3/6
f 493/3/6 494/3/6 498/3/6
f 498/3/6 494/3/6 499/3/6
f 499/3/6 494/3/6 500/3/6
f 495/3/6 496/3/6 501/3/6
f 501/3/6 496/3/6 502/3/6
f 502/3/6 496/3/6 503/3/6
f 497/3/6 498/3/6 506/3/6
f 498/3/6 499/3/6 506/3/6
f 506/3/6 499/3/6 507/3/6
f 499/2/6 500/2/6 508/2/6
f 507/3/6 499/3/6 508/3/6
f 500/3/6 494/3/6 509/3/6
f 490/3/6 486/3/6 510/3/6
f 487/3/6 491/3/6 511/3/6
f 495/3/6 501/3/6 512/3/6
f 503/3/6 504/3/6 513/3/6
f 502/3/6 503/3/6 513/3/6
f 501/2/6 502/2/6 513/2/6
f 513/3/6 504/3/6 514/3/6
f 514/3/6 504/3/6 515/3/6
f 506/3/6 507/3/6 518/3/6
f 505/3/6 506/3/6 518/3/6
f 518/3/6 507/3/6 519/3/6
f 507/2/6 508/2/6 520/2/6
f 519/3/6 507/3/6 520/3/6
f 509/3/6 510/3/6 521/3/6
f 520/2/6 508/2/6 521/2/6
f 500/3/6 509/3/6 521/3/6
f 508/2/6 500/2/6 521/2/6
f 486/2/6 487/2/6 522/2/6
f 521/3/6 510/3/6 522/3/6
f 510/3/6 486/3/6 522/3/6
f 511/3/6 512/3/6 523/3/6
f 522/2/6 487/2/6 523/2/6
f 487/3/6 511/3/6 523/3/6
f 512/3/6 501/3/6 524/3/6
f 523/3/6 512/3/6 524/3/6
f 501/2/6 513/2/6 524/2/6
f 513/2/6 514/2/6 524/2/6
f 515/3/6 516/3/6 525/3/6
f 524/2/6 514/2/6 525/2/6
f 514/3/6 515/3/6 525/3/6
f 525/3/6 516/3/6 526/3/6
f 526/3/6 516/3/6 527/3/6
f 517/3/6 518/3/6 529/3/6
f 518/3/6 519/3/6 529/3/6
f 520/2/6 521/2/6 530/2/6
f 529/3/6 519/3/6 530/3/6
f 519/2/6 520/2/6 530/2/6
f 525/2/6 526/2/6 530/2/6
f 524/2/6 525/2/6 530/2/6
f 521/2/6 522/2/6 530/2/6
f 522/2/6 523/2/6 530/2/6
f 523/2/6 524/2/6 530/2/6
f 526/3/6 527/3/6 531/3/6
f 530/2/6 526/2/6 531/2/6
f 527/3/6 528/3/6 531/3/6
f 531/3/6 528/3/6 532/3/6
f 517/3/6 529/3/6 533/3/6
f 529/2/6 530/2/6 533/2/6
f 531/2/6 532/2/6 533/2/6
f 530/2/6 531/2/6 533/2/6
f 533/2/6 532/2/6 534/2/6
f 534/2/6 532/2/6 535/2/6
f 532/3/6 528/3/6 536/3/6
f 535/2/6 532/2/6 536/2/6
f 517/3/6 533/3/6 537/3/6
f 533/3/6 534/3/6 537/3/6
f 537/3/6 534/3/6 538/3/6
f 534/2/6 535/2/6 539/2/6
f 538/3/6 534/3/6 539/3/6
f 539/2/6 535/2/6 540/2/6
f 540/2/6 535/2/6 541/2/6
f 541/2/6 535/2/6 542/2/6
f 542/2/6 535/2/6 543/2/6
f 543/2/6 535/2/6 544/2/6
f 544/2/6 535/2/6 545/2/6
f 535/3/6 536/3/6 546/3/6
f 545/2/6 535/2/6 546/2/6
f 536/3/6 528/3/6 547/3/6
f 546/3/6 536/3/6 547/3/6
f 547/3/6 528/3/6 548/3/6
f 538/3/6 539/3/6 549/3/6
f 539/3/6 540/3/6 549/3/6
f 549/3/6 540/3/6 550/3/6
f 540/2/6 541/2/6 551/2/6
f 550/3/6 540/3/6 551/3/6
f 551/2/6 541/2/6 552/2/6
f 541/3/6 542/3/6 553/3/6
f 553/3/6 542/3/6 554/3/6
f 543/3/6 544/3/6 555/3/6
f 555/3/6 544/3/6 556/3/6
f 544/2/6 545/2/6 557/2/6
f 545/3/6 546/3/6 558/3/6
f 557/2/6 545/2/6 558/2/6
f 546/3/6 547/3/6 558/3/6
f 558/3/6 547/3/6 559/3/6
f 559/3/6 547/3/6 560/3/6
f 550/3/6 551/3/6 561/3/6
f 551/3/6 552/3/6 561/3/6
f 561/3/6 552/3/6 562/3/6
f 552/2/6 541/2/6 563/2/6
f 562/3/6 552/3/6 563/3/6
f 541/3/6 553/3/6 564/3/6
f 563/2/6 541/2/6 564/2/6
f 544/2/6 557/2/6 565/2/6
f 556/3/6 544/3/6 565/3/6
f 558/3/6 559/3/6 566/3/6
f 565/2/6 557/2/6 566/2/6
f 557/3/6 558/3/6 566/3/6
f 566/3/6 559/3/6 567/3/6
f 567/3/6 559/3/6 568/3/6
f 563/3/6 564/3/6 569/3/6
f 562/3/6 563/3/6 569/3/6
f 564/3/6 553/3/6 570/3/6
f 569/3/6 564/3/6 570/3/6
f 556/3/6 565/3/6 571/3/6
f 566/3/6 567/3/6 571/3/6
f 565/3/6 566/3/6 571/3/6
f 571/3/6 567/3/6 572/3/6
f 554/3/6 542/3/6 574/3/6
f 543/3/6 555/3/6 575/3/6
f 573/3/6 574/3/6 577/3/6
f 542/1/6 543/1/6 578/1/6
f 577/3/6 574/3/6 578/3/6
f 574/3/6 542/3/6 578/3/6
f 575/3/6 576/3/6 579/3/6
f 578/1/6 543/1/6 579/1/6
f 543/3/6 575/3/6 579/3/6
f 579/3/6 576/3/6 580/3/6
f 577/1/6 578/1/6 581/1/6
f 573/3/6 577/3/6 581/3/6
f 579/1/6 580/1/6 581/1/6
f 578/1/6 579/1/6 581/1/6
f 581/1/6 580/1/6 582/1/6
f 582/1/6 580/1/6 583/1/6
f 580/3/6 576/3/6 584/3/6
f 583/1/6 580/1/6 584/1/6
f 573/3/6 581/3/6 585/3/6
f 581/3/6 582/3/6 585/3/6
f 585/3/6 582/3/6 586/3/6
f 582/1/6 583/1/6 587/1/6
f 586/3/6 582/3/6 587/3/6
f 587/1/6 583/1/6 588/1/6
f 588/1/6 583/1/6 589/1/6
f 583/3/6 584/3/6 590/3/6
f 589/1/6 583/1/6 590/1/6
f 584/3/6 576/3/6 591/3/6
f 590/3/6 584/3/6 591/3/6
f 591/3/6 576/3/6 592/3/6
f 586/3/6 587/3/6 593/3/6
f 587/3/6 588/3/6 593/3/6
f 593/3/6 588/3/6 594/3/6
f 588/1/6 589/1/6 595/1/6
f 594/3/6 588/3/6 595/3/6
f 595/1/6 589/1/6 596/1/6
f 596/1/6 589/1/6 597/1/6
f 589/3/6 590/3/6 598/3/6
f 597/1/6 589/1/6 598/1/6
f 590/3/6 591/3/6 598/3/6
f 598/3/6 591/3/6 599/3/6
f 599/3/6 591/3/6 600/3/6
f 595/3/6 596/3/6 601/3/6
f 594/3/6 595/3/6 601/3/6
f 601/3/6 596/3/6 602/3/6
f 596/1/6 597/1/6 603/1/6
f 602/3/6 596/3/6 603/3/6
f 598/3/6 599/3/6 604/3/6
f 603/1/6 597/1/6 604/1/6
f 597/3/6 598/3/6 604/3/6
f 604/3/6 599/3/6 605/3/6
f 605/3/6 599/3/6 606/3/6
f 602/3/6 603/3/6 607/3/6
f 604/3/6 605/3/6 607/3/6
f 603/3/6 604/3/6 607/3/6
f 607/3/6 605/3/6 608/3/6
