# MagicaVoxel @ Ephtracy

# group
g headChar004

# material
mtllib headChar004.mtl
usemtl palette

# normals
vn -1 0 0
vn 1 0 0
vn 0 0 1
vn 0 0 -1
vn 0 -1 0
vn 0 1 0

# texcoords
vt 0.0605469 0.5
vt 0.537109 0.5
vt 0.849609 0.5
vt 0.958984 0.5
vt 0.990234 0.5

# verts
v -4 17 -2
v -4 17 -3
v -4 19 3
v -4 19 2
v -4 21 -1
v -4 21 -2
v -4 24 2
v -4 24 1
v -4 24 -0
v -4 24 -1
v -4 25 1
v -4 25 -0
v -4 27 3
v -4 27 -3
v -3 16 -2
v -3 16 -3
v -3 17 -2
v -3 17 -3
v -3 22 2
v -3 22 -1
v -3 24 2
v -3 24 1
v -3 24 -0
v -3 24 -1
v -3 25 1
v -3 25 -0
v -3 27 3
v -3 27 -2
v -3 28 3
v -3 28 -2
v -2 21 2
v -2 21 -1
v -2 22 2
v -2 22 -1
v -1 26 3
v -1 26 2
v -1 27 3
v -1 27 2
v 3 19 3
v 3 19 2
v 3 21 -1
v 3 21 -2
v 3 22 2
v 3 22 -1
v 3 22 -2
v 3 24 2
v 3 26 2
v 3 27 3
v 3 27 2
v -3 19 3
v -3 19 2
v -3 22 2
v -3 24 2
v -3 26 2
v -3 27 3
v -3 27 2
v 1 26 3
v 1 26 2
v 1 27 3
v 1 27 2
v 2 21 2
v 2 21 -1
v 2 21 -2
v 2 22 2
v 2 22 -1
v 2 22 -2
v 3 16 -2
v 3 16 -3
v 3 17 -2
v 3 17 -3
v 3 22 2
v 3 22 -1
v 3 24 2
v 3 24 1
v 3 24 -0
v 3 24 -1
v 3 25 1
v 3 25 -0
v 3 27 3
v 3 27 -2
v 3 28 3
v 3 28 -2
v 4 17 -2
v 4 17 -3
v 4 19 3
v 4 19 2
v 4 21 -1
v 4 21 -2
v 4 24 2
v 4 24 1
v 4 24 -0
v 4 24 -1
v 4 25 1
v 4 25 -0
v 4 27 3
v 4 27 -3
v -4 19 3
v -4 27 3
v -3 19 3
v -3 27 3
v -3 28 3
v -1 26 3
v -1 27 3
v 1 26 3
v 1 27 3
v 3 19 3
v 3 27 3
v 3 28 3
v 4 19 3
v 4 27 3
v -3 22 2
v -3 24 2
v -3 26 2
v -3 27 2
v -2 21 2
v -2 22 2
v -2 24 2
v -2 26 2
v -2 27 2
v -1 22 2
v -1 23 2
v -1 24 2
v -1 26 2
v -1 27 2
v 1 22 2
v 1 23 2
v 1 24 2
v 1 26 2
v 1 27 2
v 2 21 2
v 2 22 2
v 2 24 2
v 2 26 2
v 2 27 2
v 3 22 2
v 3 24 2
v 3 26 2
v 3 27 2
v -4 24 -0
v -4 25 -0
v -3 24 -0
v -3 25 -0
v 3 24 -0
v 3 25 -0
v 4 24 -0
v 4 25 -0
v -4 21 -1
v -4 24 -1
v -3 22 -1
v -3 24 -1
v -2 21 -1
v -2 22 -1
v 3 21 -1
v 3 22 -1
v 3 24 -1
v 4 21 -1
v 4 24 -1
v -4 17 -2
v -4 21 -2
v -3 16 -2
v -3 17 -2
v 2 21 -2
v 2 22 -2
v 3 16 -2
v 3 17 -2
v 3 21 -2
v 3 22 -2
v 4 17 -2
v 4 21 -2
v -4 19 2
v -4 24 2
v -3 19 2
v -3 22 2
v -3 24 2
v 3 19 2
v 3 22 2
v 3 24 2
v 4 19 2
v 4 24 2
v -4 24 1
v -4 25 1
v -3 24 1
v -3 25 1
v 3 24 1
v 3 25 1
v 4 24 1
v 4 25 1
v -3 27 -2
v -3 28 -2
v 3 27 -2
v 3 28 -2
v -4 17 -3
v -4 27 -3
v -3 16 -3
v -3 17 -3
v 3 16 -3
v 3 17 -3
v 4 17 -3
v 4 27 -3
v -3 16 -2
v 3 16 -2
v -3 16 -3
v 3 16 -3
v -4 17 -2
v -3 17 -2
v 3 17 -2
v 4 17 -2
v -4 17 -3
v -3 17 -3
v 3 17 -3
v 4 17 -3
v -4 19 3
v -3 19 3
v 3 19 3
v 4 19 3
v -4 19 2
v -3 19 2
v 3 19 2
v 4 19 2
v -2 21 2
v 2 21 2
v -4 21 -1
v -2 21 -1
v 2 21 -1
v 3 21 -1
v 4 21 -1
v -4 21 -2
v 2 21 -2
v 3 21 -2
v 4 21 -2
v -3 22 2
v -2 22 2
v 2 22 2
v 3 22 2
v -3 22 -1
v -2 22 -1
v 2 22 -1
v 3 22 -1
v 2 22 -2
v 3 22 -2
v -4 24 2
v -3 24 2
v 3 24 2
v 4 24 2
v -4 24 1
v -3 24 1
v 3 24 1
v 4 24 1
v -4 24 -0
v -3 24 -0
v 3 24 -0
v 4 24 -0
v -4 24 -1
v -3 24 -1
v 3 24 -1
v 4 24 -1
v -4 25 1
v -3 25 1
v 3 25 1
v 4 25 1
v -4 25 -0
v -3 25 -0
v 3 25 -0
v 4 25 -0
v -1 26 3
v 1 26 3
v -1 26 2
v 1 26 2
v -3 27 3
v -1 27 3
v 1 27 3
v 3 27 3
v -3 27 2
v -2 27 2
v -1 27 2
v 1 27 2
v 2 27 2
v 3 27 2
v -4 27 3
v -3 27 3
v 3 27 3
v 4 27 3
v -3 27 -2
v 3 27 -2
v -4 27 -3
v 4 27 -3
v -3 28 3
v 3 28 3
v -3 28 -2
v 3 28 -2

# faces
f 6/5/1 2/5/1 1/5/1
f 7/5/1 4/5/1 3/5/1
f 10/5/1 6/5/1 5/5/1
f 11/5/1 8/5/1 7/5/1
f 12/5/1 10/5/1 9/5/1
f 13/5/1 11/5/1 7/5/1
f 13/5/1 12/5/1 11/5/1
f 13/5/1 7/5/1 3/5/1
f 14/5/1 10/5/1 12/5/1
f 14/5/1 12/5/1 13/5/1
f 14/5/1 2/5/1 6/5/1
f 14/5/1 6/5/1 10/5/1
f 17/5/1 16/5/1 15/5/1
f 18/5/1 16/5/1 17/5/1
f 21/1/1 20/1/1 19/1/1
f 22/1/1 20/1/1 21/1/1
f 23/1/1 20/1/1 22/1/1
f 24/1/1 20/1/1 23/1/1
f 25/1/1 23/1/1 22/1/1
f 26/1/1 23/1/1 25/1/1
f 29/5/1 28/5/1 27/5/1
f 30/5/1 28/5/1 29/5/1
f 33/1/1 32/1/1 31/1/1
f 34/1/1 32/1/1 33/1/1
f 37/5/1 36/5/1 35/5/1
f 38/5/1 36/5/1 37/5/1
f 43/5/1 40/5/1 39/5/1
f 44/5/1 42/5/1 41/5/1
f 45/5/1 42/5/1 44/5/1
f 46/5/1 43/5/1 39/5/1
f 47/5/1 46/5/1 39/5/1
f 48/5/1 47/5/1 39/5/1
f 49/5/1 47/5/1 48/5/1
f 50/5/2 51/5/2 52/5/2
f 50/5/2 52/5/2 53/5/2
f 50/5/2 53/5/2 54/5/2
f 50/5/2 54/5/2 55/5/2
f 55/5/2 54/5/2 56/5/2
f 57/5/2 58/5/2 59/5/2
f 59/5/2 58/5/2 60/5/2
f 61/1/2 62/1/2 64/1/2
f 62/5/2 63/5/2 65/5/2
f 64/1/2 62/1/2 65/1/2
f 65/5/2 63/5/2 66/5/2
f 67/5/2 68/5/2 69/5/2
f 69/5/2 68/5/2 70/5/2
f 71/1/2 72/1/2 73/1/2
f 73/1/2 72/1/2 74/1/2
f 74/1/2 72/1/2 75/1/2
f 75/1/2 72/1/2 76/1/2
f 74/1/2 75/1/2 77/1/2
f 77/1/2 75/1/2 78/1/2
f 79/5/2 80/5/2 81/5/2
f 81/5/2 80/5/2 82/5/2
f 83/5/2 84/5/2 88/5/2
f 85/5/2 86/5/2 89/5/2
f 87/5/2 88/5/2 92/5/2
f 89/5/2 90/5/2 93/5/2
f 91/5/2 92/5/2 94/5/2
f 89/5/2 93/5/2 95/5/2
f 93/5/2 94/5/2 95/5/2
f 85/5/2 89/5/2 95/5/2
f 94/5/2 92/5/2 96/5/2
f 95/5/2 94/5/2 96/5/2
f 88/5/2 84/5/2 96/5/2
f 92/5/2 88/5/2 96/5/2
f 99/5/3 98/5/3 97/5/3
f 100/5/3 98/5/3 99/5/3
f 103/5/3 101/5/3 100/5/3
f 104/5/3 103/5/3 102/5/3
f 105/5/3 101/5/3 103/5/3
f 105/5/3 103/5/3 104/5/3
f 107/5/3 101/5/3 105/5/3
f 108/5/3 101/5/3 107/5/3
f 109/5/3 107/5/3 106/5/3
f 110/5/3 107/5/3 109/5/3
f 116/1/3 112/1/3 111/1/3
f 117/4/3 113/4/3 112/4/3
f 117/1/3 112/1/3 116/1/3
f 118/5/3 114/5/3 113/5/3
f 118/4/3 113/4/3 117/4/3
f 119/5/3 114/5/3 118/5/3
f 120/1/3 117/1/3 116/1/3
f 120/1/3 116/1/3 115/1/3
f 121/1/3 117/1/3 120/1/3
f 122/5/3 118/5/3 117/5/3
f 122/1/3 117/1/3 121/1/3
f 123/1/3 119/1/3 118/1/3
f 123/5/3 118/5/3 122/5/3
f 124/1/3 119/1/3 123/1/3
f 125/3/3 121/3/3 120/3/3
f 125/1/3 120/1/3 115/1/3
f 126/1/3 122/1/3 121/1/3
f 126/3/3 121/3/3 125/3/3
f 126/1/3 123/1/3 122/1/3
f 127/1/3 123/1/3 126/1/3
f 128/1/3 123/1/3 127/1/3
f 130/1/3 125/1/3 115/1/3
f 130/1/3 126/1/3 125/1/3
f 130/1/3 127/1/3 126/1/3
f 131/1/3 127/1/3 130/1/3
f 132/5/3 128/5/3 127/5/3
f 132/1/3 127/1/3 131/1/3
f 133/1/3 129/1/3 128/1/3
f 133/5/3 128/5/3 132/5/3
f 134/1/3 129/1/3 133/1/3
f 135/1/3 132/1/3 131/1/3
f 136/4/3 133/4/3 132/4/3
f 136/1/3 132/1/3 135/1/3
f 137/5/3 134/5/3 133/5/3
f 137/4/3 133/4/3 136/4/3
f 138/5/3 134/5/3 137/5/3
f 141/5/3 140/5/3 139/5/3
f 142/5/3 140/5/3 141/5/3
f 145/5/3 144/5/3 143/5/3
f 146/5/3 144/5/3 145/5/3
f 149/5/3 148/5/3 147/5/3
f 150/5/3 148/5/3 149/5/3
f 151/5/3 149/5/3 147/5/3
f 152/5/3 149/5/3 151/5/3
f 156/5/3 154/5/3 153/5/3
f 156/5/3 155/5/3 154/5/3
f 157/5/3 155/5/3 156/5/3
f 161/5/3 159/5/3 158/5/3
f 162/5/3 159/5/3 161/5/3
f 162/5/3 161/5/3 160/5/3
f 164/5/3 162/5/3 160/5/3
f 164/5/3 163/5/3 162/5/3
f 165/5/3 163/5/3 164/5/3
f 166/5/3 163/5/3 165/5/3
f 167/5/3 163/5/3 166/5/3
f 168/5/3 166/5/3 165/5/3
f 169/5/3 166/5/3 168/5/3
f 170/5/4 171/5/4 172/5/4
f 172/5/4 171/5/4 173/5/4
f 173/5/4 171/5/4 174/5/4
f 175/5/4 176/5/4 178/5/4
f 176/5/4 177/5/4 178/5/4
f 178/5/4 177/5/4 179/5/4
f 180/5/4 181/5/4 182/5/4
f 182/5/4 181/5/4 183/5/4
f 184/5/4 185/5/4 186/5/4
f 186/5/4 185/5/4 187/5/4
f 188/5/4 189/5/4 190/5/4
f 190/5/4 189/5/4 191/5/4
f 192/5/4 193/5/4 195/5/4
f 194/5/4 195/5/4 196/5/4
f 195/5/4 193/5/4 197/5/4
f 196/5/4 195/5/4 197/5/4
f 197/5/4 193/5/4 198/5/4
f 198/5/4 193/5/4 199/5/4
f 202/5/5 201/5/5 200/5/5
f 203/5/5 201/5/5 202/5/5
f 208/5/5 205/5/5 204/5/5
f 209/5/5 205/5/5 208/5/5
f 210/5/5 207/5/5 206/5/5
f 211/5/5 207/5/5 210/5/5
f 216/5/5 213/5/5 212/5/5
f 217/5/5 213/5/5 216/5/5
f 218/5/5 215/5/5 214/5/5
f 219/5/5 215/5/5 218/5/5
f 223/1/5 221/1/5 220/1/5
f 224/1/5 221/1/5 223/1/5
f 227/5/5 223/5/5 222/5/5
f 227/5/5 224/5/5 223/5/5
f 228/5/5 224/5/5 227/5/5
f 229/5/5 226/5/5 225/5/5
f 230/5/5 226/5/5 229/5/5
f 235/1/5 232/1/5 231/1/5
f 236/1/5 232/1/5 235/1/5
f 237/1/5 234/1/5 233/1/5
f 238/1/5 234/1/5 237/1/5
f 239/5/5 238/5/5 237/5/5
f 240/5/5 238/5/5 239/5/5
f 245/5/5 242/5/5 241/5/5
f 246/5/5 242/5/5 245/5/5
f 247/5/5 244/5/5 243/5/5
f 248/5/5 244/5/5 247/5/5
f 253/5/5 250/5/5 249/5/5
f 254/5/5 250/5/5 253/5/5
f 255/5/5 252/5/5 251/5/5
f 256/5/5 252/5/5 255/5/5
f 261/5/5 258/5/5 257/5/5
f 262/5/5 258/5/5 261/5/5
f 263/5/5 260/5/5 259/5/5
f 264/5/5 260/5/5 263/5/5
f 267/5/5 266/5/5 265/5/5
f 268/5/5 266/5/5 267/5/5
f 273/5/5 270/5/5 269/5/5
f 274/5/5 270/5/5 273/5/5
f 275/5/5 270/5/5 274/5/5
f 276/5/5 272/5/5 271/5/5
f 277/5/5 272/5/5 276/5/5
f 278/5/5 272/5/5 277/5/5
f 279/5/6 280/5/6 283/5/6
f 281/5/6 282/5/6 284/5/6
f 279/5/6 283/5/6 285/5/6
f 283/5/6 284/5/6 285/5/6
f 284/5/6 282/5/6 286/5/6
f 285/5/6 284/5/6 286/5/6
f 287/5/6 288/5/6 289/5/6
f 289/5/6 288/5/6 290/5/6
