# MagicaVoxel @ Ephtracy

# group
g headChar006

# material
mtllib headChar006.mtl
usemtl palette

# normals
vn -1 0 0
vn 1 0 0
vn 0 0 1
vn 0 0 -1
vn 0 -1 0
vn 0 1 0

# texcoords
vt 0.0605469 0.5
vt 0.533203 0.5
vt 0.537109 0.5
vt 0.849609 0.5
vt 0.958984 0.5
vt 0.990234 0.5

# verts
v -3 22 2
v -3 22 -2
v -3 22 -4
v -3 24 2
v -3 24 1
v -3 24 -1
v -3 24 -2
v -3 25 -0
v -3 25 -1
v -3 26 2
v -3 26 1
v -3 26 -0
v -3 27 3
v -3 27 2
v -3 27 1
v -3 27 -4
v -3 28 3
v -3 28 -4
v -2 21 2
v -2 21 -2
v -2 21 -4
v -2 22 2
v -2 22 -2
v -2 22 -4
v -2 27 4
v -2 27 3
v -2 28 4
v -2 28 3
v -2 28 2
v -2 28 -4
v -2 29 2
v -2 29 1
v -2 29 -3
v -2 29 -4
v -2 30 1
v -2 30 -3
v 2 21 2
v 2 21 -2
v 2 21 -4
v 2 22 2
v 2 22 -2
v 2 22 -4
v 2 27 4
v 2 27 3
v 2 28 4
v 2 28 3
v 2 28 2
v 2 28 -4
v 2 29 2
v 2 29 1
v 2 29 -3
v 2 29 -4
v 2 30 1
v 2 30 -3
v 3 22 2
v 3 22 -2
v 3 22 -4
v 3 24 2
v 3 24 1
v 3 25 -1
v 3 25 -2
v 3 26 2
v 3 26 1
v 3 26 -1
v 3 27 3
v 3 27 2
v 3 27 1
v 3 27 -4
v 3 28 3
v 3 28 -4
v -2 27 4
v -2 28 4
v 2 27 4
v 2 28 4
v -3 27 3
v -3 28 3
v -2 27 3
v -2 28 3
v 2 27 3
v 2 28 3
v 3 27 3
v 3 28 3
v -3 22 2
v -3 24 2
v -3 26 2
v -3 27 2
v -2 21 2
v -2 22 2
v -2 24 2
v -2 26 2
v -2 28 2
v -2 29 2
v -1 22 2
v -1 23 2
v -1 24 2
v -1 26 2
v 1 22 2
v 1 23 2
v 1 24 2
v 1 26 2
v 2 21 2
v 2 22 2
v 2 24 2
v 2 26 2
v 2 28 2
v 2 29 2
v 3 22 2
v 3 24 2
v 3 26 2
v 3 27 2
v -2 29 1
v -2 30 1
v 2 29 1
v 2 30 1
v -2 29 -3
v -2 30 -3
v 2 29 -3
v 2 30 -3
v -3 22 -4
v -3 27 -4
v -3 28 -4
v -2 21 -4
v -2 22 -4
v -2 28 -4
v -2 29 -4
v 2 21 -4
v 2 22 -4
v 2 28 -4
v 2 29 -4
v 3 22 -4
v 3 27 -4
v 3 28 -4
v -2 21 2
v 2 21 2
v -2 21 -2
v 2 21 -2
v -2 21 -4
v 2 21 -4
v -3 22 2
v -2 22 2
v 2 22 2
v 3 22 2
v -3 22 -2
v -2 22 -2
v 2 22 -2
v 3 22 -2
v -3 22 -4
v -2 22 -4
v 2 22 -4
v 3 22 -4
v -2 27 4
v 2 27 4
v -3 27 3
v -2 27 3
v 2 27 3
v 3 27 3
v -3 27 2
v 3 27 2
v -2 28 4
v 2 28 4
v -3 28 3
v -2 28 3
v 2 28 3
v 3 28 3
v -2 28 2
v 2 28 2
v -3 28 -4
v -2 28 -4
v 2 28 -4
v 3 28 -4
v -2 29 2
v 2 29 2
v -2 29 1
v 2 29 1
v -2 29 -3
v 2 29 -3
v -2 29 -4
v 2 29 -4
v -2 30 1
v 2 30 1
v -2 30 -3
v 2 30 -3

# faces
f 4/1/1 2/1/1 1/1/1
f 5/1/1 2/1/1 4/1/1
f 6/1/1 2/1/1 5/1/1
f 7/2/1 3/2/1 2/2/1
f 7/1/1 2/1/1 6/1/1
f 8/1/1 6/1/1 5/1/1
f 9/2/1 7/2/1 6/2/1
f 9/1/1 6/1/1 8/1/1
f 10/5/1 5/5/1 4/5/1
f 11/1/1 8/1/1 5/1/1
f 11/5/1 5/5/1 10/5/1
f 12/2/1 9/2/1 8/2/1
f 12/1/1 8/1/1 11/1/1
f 14/1/1 11/1/1 10/1/1
f 15/2/1 12/2/1 11/2/1
f 15/1/1 11/1/1 14/1/1
f 16/2/1 3/2/1 7/2/1
f 16/2/1 12/2/1 15/2/1
f 16/2/1 7/2/1 9/2/1
f 16/2/1 9/2/1 12/2/1
f 17/4/1 15/4/1 14/4/1
f 17/4/1 14/4/1 13/4/1
f 17/4/1 16/4/1 15/4/1
f 18/4/1 16/4/1 17/4/1
f 22/1/1 20/1/1 19/1/1
f 23/2/1 21/2/1 20/2/1
f 23/1/1 20/1/1 22/1/1
f 24/2/1 21/2/1 23/2/1
f 27/4/1 26/4/1 25/4/1
f 28/4/1 26/4/1 27/4/1
f 31/4/1 30/4/1 29/4/1
f 32/4/1 30/4/1 31/4/1
f 33/4/1 30/4/1 32/4/1
f 34/4/1 30/4/1 33/4/1
f 35/4/1 33/4/1 32/4/1
f 36/4/1 33/4/1 35/4/1
f 37/1/2 38/1/2 40/1/2
f 38/2/2 39/2/2 41/2/2
f 40/1/2 38/1/2 41/1/2
f 41/2/2 39/2/2 42/2/2
f 43/4/2 44/4/2 45/4/2
f 45/4/2 44/4/2 46/4/2
f 47/4/2 48/4/2 49/4/2
f 49/4/2 48/4/2 50/4/2
f 50/4/2 48/4/2 51/4/2
f 51/4/2 48/4/2 52/4/2
f 50/4/2 51/4/2 53/4/2
f 53/4/2 51/4/2 54/4/2
f 55/1/2 56/1/2 58/1/2
f 58/1/2 56/1/2 59/1/2
f 59/1/2 56/1/2 60/1/2
f 56/2/2 57/2/2 61/2/2
f 60/1/2 56/1/2 61/1/2
f 58/5/2 59/5/2 62/5/2
f 59/1/2 60/1/2 63/1/2
f 62/5/2 59/5/2 63/5/2
f 60/2/2 61/2/2 64/2/2
f 63/1/2 60/1/2 64/1/2
f 62/1/2 63/1/2 66/1/2
f 63/2/2 64/2/2 67/2/2
f 66/1/2 63/1/2 67/1/2
f 61/2/2 57/2/2 68/2/2
f 67/2/2 64/2/2 68/2/2
f 64/2/2 61/2/2 68/2/2
f 66/4/2 67/4/2 69/4/2
f 65/4/2 66/4/2 69/4/2
f 67/4/2 68/4/2 69/4/2
f 69/4/2 68/4/2 70/4/2
f 73/4/3 72/4/3 71/4/3
f 74/4/3 72/4/3 73/4/3
f 77/4/3 76/4/3 75/4/3
f 78/4/3 76/4/3 77/4/3
f 81/4/3 80/4/3 79/4/3
f 82/4/3 80/4/3 81/4/3
f 88/1/3 84/1/3 83/1/3
f 89/5/3 85/5/3 84/5/3
f 89/1/3 84/1/3 88/1/3
f 90/1/3 86/1/3 85/1/3
f 90/5/3 85/5/3 89/5/3
f 93/1/3 89/1/3 88/1/3
f 93/1/3 88/1/3 87/1/3
f 94/1/3 89/1/3 93/1/3
f 95/6/3 90/6/3 89/6/3
f 95/1/3 89/1/3 94/1/3
f 96/1/3 86/1/3 90/1/3
f 96/6/3 90/6/3 95/6/3
f 97/3/3 94/3/3 93/3/3
f 97/1/3 93/1/3 87/1/3
f 98/1/3 95/1/3 94/1/3
f 98/3/3 94/3/3 97/3/3
f 98/1/3 96/1/3 95/1/3
f 99/1/3 96/1/3 98/1/3
f 100/1/3 86/1/3 96/1/3
f 100/1/3 96/1/3 99/1/3
f 101/1/3 97/1/3 87/1/3
f 101/1/3 99/1/3 98/1/3
f 101/1/3 98/1/3 97/1/3
f 102/1/3 99/1/3 101/1/3
f 103/6/3 100/6/3 99/6/3
f 103/1/3 99/1/3 102/1/3
f 104/1/3 86/1/3 100/1/3
f 104/6/3 100/6/3 103/6/3
f 105/4/3 92/4/3 91/4/3
f 106/4/3 92/4/3 105/4/3
f 107/1/3 103/1/3 102/1/3
f 108/5/3 104/5/3 103/5/3
f 108/1/3 103/1/3 107/1/3
f 109/1/3 86/1/3 104/1/3
f 109/5/3 104/5/3 108/5/3
f 110/1/3 86/1/3 109/1/3
f 113/4/3 112/4/3 111/4/3
f 114/4/3 112/4/3 113/4/3
f 115/4/4 116/4/4 117/4/4
f 117/4/4 116/4/4 118/4/4
f 119/2/4 120/2/4 123/2/4
f 120/4/4 121/4/4 124/4/4
f 122/2/4 123/2/4 126/2/4
f 123/2/4 120/2/4 127/2/4
f 126/2/4 123/2/4 127/2/4
f 124/4/4 125/4/4 128/4/4
f 120/4/4 124/4/4 128/4/4
f 128/4/4 125/4/4 129/4/4
f 127/2/4 120/2/4 130/2/4
f 120/4/4 128/4/4 131/4/4
f 130/2/4 120/2/4 131/2/4
f 131/4/4 128/4/4 132/4/4
f 135/1/5 134/1/5 133/1/5
f 136/1/5 134/1/5 135/1/5
f 137/2/5 136/2/5 135/2/5
f 138/2/5 136/2/5 137/2/5
f 143/1/5 140/1/5 139/1/5
f 144/1/5 140/1/5 143/1/5
f 145/1/5 142/1/5 141/1/5
f 146/1/5 142/1/5 145/1/5
f 147/2/5 144/2/5 143/2/5
f 148/2/5 144/2/5 147/2/5
f 149/2/5 146/2/5 145/2/5
f 150/2/5 146/2/5 149/2/5
f 154/4/5 152/4/5 151/4/5
f 155/4/5 152/4/5 154/4/5
f 157/4/5 154/4/5 153/4/5
f 157/4/5 156/4/5 155/4/5
f 157/4/5 155/4/5 154/4/5
f 158/4/5 156/4/5 157/4/5
f 159/4/6 160/4/6 162/4/6
f 162/4/6 160/4/6 163/4/6
f 161/4/6 162/4/6 165/4/6
f 163/4/6 164/4/6 165/4/6
f 162/4/6 163/4/6 165/4/6
f 165/4/6 164/4/6 166/4/6
f 161/4/6 165/4/6 167/4/6
f 167/4/6 165/4/6 168/4/6
f 166/4/6 164/4/6 169/4/6
f 169/4/6 164/4/6 170/4/6
f 171/4/6 172/4/6 173/4/6
f 173/4/6 172/4/6 174/4/6
f 175/4/6 176/4/6 177/4/6
f 177/4/6 176/4/6 178/4/6
f 179/4/6 180/4/6 181/4/6
f 181/4/6 180/4/6 182/4/6
