# MagicaVoxel @ Ephtracy

# group
g headChar003

# material
mtllib headChar003.mtl
usemtl palette

# normals
vn -1 0 0
vn 1 0 0
vn 0 0 1
vn 0 0 -1
vn 0 -1 0
vn 0 1 0

# texcoords
vt 0.0332031 0.5
vt 0.0605469 0.5
vt 0.537109 0.5
vt 0.958984 0.5
vt 0.970703 0.5
vt 0.990234 0.5

# verts
v -5 26 2
v -5 26 -4
v -5 27 2
v -5 27 -4
v -4 26 3
v -4 26 2
v -4 26 -4
v -4 26 -5
v -4 27 3
v -4 27 2
v -4 27 -4
v -4 27 -5
v -3 22 2
v -3 22 -1
v -3 22 -4
v -3 24 2
v -3 24 1
v -3 25 -0
v -3 25 -1
v -3 26 4
v -3 26 3
v -3 26 2
v -3 26 1
v -3 26 -0
v -3 26 -4
v -3 26 -5
v -3 26 -6
v -3 27 4
v -3 27 3
v -3 27 1
v -3 27 -3
v -3 27 -5
v -3 27 -6
v -3 29 1
v -3 29 -3
v -2 21 2
v -2 21 1
v -2 22 2
v -2 22 1
v -2 27 2
v -2 27 1
v -2 27 -3
v -2 27 -4
v -2 29 2
v -2 29 1
v -2 29 -3
v -2 29 -4
v -2 30 1
v -2 30 -3
v 1 29 1
v 1 29 -3
v 1 30 1
v 1 30 -3
v -1 29 1
v -1 29 -3
v -1 30 1
v -1 30 -3
v 2 21 2
v 2 21 1
v 2 22 2
v 2 22 1
v 2 27 2
v 2 27 1
v 2 27 -3
v 2 27 -4
v 2 29 2
v 2 29 1
v 2 29 -3
v 2 29 -4
v 2 30 1
v 2 30 -3
v 3 22 2
v 3 22 -1
v 3 22 -4
v 3 24 2
v 3 24 1
v 3 25 -0
v 3 25 -1
v 3 26 4
v 3 26 3
v 3 26 2
v 3 26 1
v 3 26 -0
v 3 26 -4
v 3 26 -5
v 3 26 -6
v 3 27 4
v 3 27 3
v 3 27 1
v 3 27 -3
v 3 27 -5
v 3 27 -6
v 3 29 1
v 3 29 -3
v 4 26 3
v 4 26 2
v 4 26 -4
v 4 26 -5
v 4 27 3
v 4 27 2
v 4 27 -4
v 4 27 -5
v 5 26 2
v 5 26 -4
v 5 27 2
v 5 27 -4
v -3 26 4
v -3 27 4
v 3 26 4
v 3 27 4
v -4 26 3
v -4 27 3
v -3 26 3
v -3 27 3
v 3 26 3
v 3 27 3
v 4 26 3
v 4 27 3
v -5 26 2
v -5 27 2
v -4 26 2
v -4 27 2
v -3 22 2
v -3 24 2
v -3 26 2
v -2 21 2
v -2 22 2
v -2 24 2
v -2 26 2
v -2 27 2
v -2 29 2
v -1 22 2
v -1 23 2
v -1 24 2
v -1 26 2
v 1 22 2
v 1 23 2
v 1 24 2
v 1 26 2
v 2 21 2
v 2 22 2
v 2 24 2
v 2 26 2
v 2 27 2
v 2 29 2
v 3 22 2
v 3 24 2
v 3 26 2
v 4 26 2
v 4 27 2
v 5 26 2
v 5 27 2
v -3 27 1
v -3 29 1
v -2 27 1
v -2 29 1
v -2 30 1
v -1 29 1
v -1 30 1
v 1 29 1
v 1 30 1
v 2 27 1
v 2 29 1
v 2 30 1
v 3 27 1
v 3 29 1
v -2 21 1
v -2 22 1
v -1 22 1
v 1 22 1
v 2 21 1
v 2 22 1
v -3 27 -3
v -3 29 -3
v -2 27 -3
v -2 29 -3
v -2 30 -3
v -1 29 -3
v -1 30 -3
v 1 29 -3
v 1 30 -3
v 2 27 -3
v 2 29 -3
v 2 30 -3
v 3 27 -3
v 3 29 -3
v -5 26 -4
v -5 27 -4
v -4 26 -4
v -4 27 -4
v -3 22 -4
v -3 26 -4
v -2 27 -4
v -2 29 -4
v 2 27 -4
v 2 29 -4
v 3 22 -4
v 3 26 -4
v 4 26 -4
v 4 27 -4
v 5 26 -4
v 5 27 -4
v -4 26 -5
v -4 27 -5
v -3 26 -5
v -3 27 -5
v 3 26 -5
v 3 27 -5
v 4 26 -5
v 4 27 -5
v -3 26 -6
v -3 27 -6
v 3 26 -6
v 3 27 -6
v -2 21 2
v 2 21 2
v -2 21 1
v 2 21 1
v -3 22 2
v -2 22 2
v 2 22 2
v 3 22 2
v -2 22 1
v -1 22 1
v 1 22 1
v 2 22 1
v -1 22 -0
v 1 22 -0
v -3 22 -1
v 3 22 -1
v -3 22 -4
v 3 22 -4
v -3 26 4
v 3 26 4
v -4 26 3
v -3 26 3
v 3 26 3
v 4 26 3
v -5 26 2
v -4 26 2
v -3 26 2
v -2 26 2
v -1 26 2
v 1 26 2
v 2 26 2
v 3 26 2
v 4 26 2
v 5 26 2
v -3 26 1
v 3 26 1
v -3 26 -0
v 3 26 -0
v -5 26 -4
v -4 26 -4
v -3 26 -4
v 3 26 -4
v 4 26 -4
v 5 26 -4
v -4 26 -5
v -3 26 -5
v 3 26 -5
v 4 26 -5
v -3 26 -6
v 3 26 -6
v -3 27 4
v 3 27 4
v -4 27 3
v -3 27 3
v 3 27 3
v 4 27 3
v -5 27 2
v -4 27 2
v -2 27 2
v 2 27 2
v 4 27 2
v 5 27 2
v -3 27 1
v -2 27 1
v 2 27 1
v 3 27 1
v -3 27 -3
v -2 27 -3
v 2 27 -3
v 3 27 -3
v -5 27 -4
v -4 27 -4
v -2 27 -4
v 2 27 -4
v 4 27 -4
v 5 27 -4
v -4 27 -5
v -3 27 -5
v 3 27 -5
v 4 27 -5
v -3 27 -6
v 3 27 -6
v -2 29 2
v 2 29 2
v -3 29 1
v -2 29 1
v -1 29 1
v 1 29 1
v 2 29 1
v 3 29 1
v -3 29 -3
v -2 29 -3
v -1 29 -3
v 1 29 -3
v 2 29 -3
v 3 29 -3
v -2 29 -4
v 2 29 -4
v -2 30 1
v -1 30 1
v 1 30 1
v 2 30 1
v -2 30 -3
v -1 30 -3
v 1 30 -3
v 2 30 -3

# faces
f 3/1/1 2/1/1 1/1/1
f 4/1/1 2/1/1 3/1/1
f 9/1/1 6/1/1 5/1/1
f 10/1/1 6/1/1 9/1/1
f 11/1/1 8/1/1 7/1/1
f 12/1/1 8/1/1 11/1/1
f 16/2/1 14/2/1 13/2/1
f 17/2/1 14/2/1 16/2/1
f 18/2/1 14/2/1 17/2/1
f 19/5/1 15/5/1 14/5/1
f 19/2/1 14/2/1 18/2/1
f 22/4/1 17/4/1 16/4/1
f 23/2/1 18/2/1 17/2/1
f 23/4/1 17/4/1 22/4/1
f 24/5/1 19/5/1 18/5/1
f 24/2/1 18/2/1 23/2/1
f 25/5/1 15/5/1 19/5/1
f 25/5/1 19/5/1 24/5/1
f 28/1/1 21/1/1 20/1/1
f 29/1/1 21/1/1 28/1/1
f 32/1/1 27/1/1 26/1/1
f 33/1/1 27/1/1 32/1/1
f 34/1/1 31/1/1 30/1/1
f 35/1/1 31/1/1 34/1/1
f 38/2/1 37/2/1 36/2/1
f 39/2/1 37/2/1 38/2/1
f 44/1/1 41/1/1 40/1/1
f 45/1/1 41/1/1 44/1/1
f 46/1/1 43/1/1 42/1/1
f 47/1/1 43/1/1 46/1/1
f 48/1/1 46/1/1 45/1/1
f 49/1/1 46/1/1 48/1/1
f 52/1/1 51/1/1 50/1/1
f 53/1/1 51/1/1 52/1/1
f 54/1/2 55/1/2 56/1/2
f 56/1/2 55/1/2 57/1/2
f 58/2/2 59/2/2 60/2/2
f 60/2/2 59/2/2 61/2/2
f 62/1/2 63/1/2 66/1/2
f 66/1/2 63/1/2 67/1/2
f 64/1/2 65/1/2 68/1/2
f 68/1/2 65/1/2 69/1/2
f 67/1/2 68/1/2 70/1/2
f 70/1/2 68/1/2 71/1/2
f 72/2/2 73/2/2 75/2/2
f 75/2/2 73/2/2 76/2/2
f 76/2/2 73/2/2 77/2/2
f 73/5/2 74/5/2 78/5/2
f 77/2/2 73/2/2 78/2/2
f 75/4/2 76/4/2 81/4/2
f 76/2/2 77/2/2 82/2/2
f 81/4/2 76/4/2 82/4/2
f 77/5/2 78/5/2 83/5/2
f 82/2/2 77/2/2 83/2/2
f 78/5/2 74/5/2 84/5/2
f 83/5/2 78/5/2 84/5/2
f 79/1/2 80/1/2 87/1/2
f 87/1/2 80/1/2 88/1/2
f 85/1/2 86/1/2 91/1/2
f 91/1/2 86/1/2 92/1/2
f 89/1/2 90/1/2 93/1/2
f 93/1/2 90/1/2 94/1/2
f 95/1/2 96/1/2 99/1/2
f 99/1/2 96/1/2 100/1/2
f 97/1/2 98/1/2 101/1/2
f 101/1/2 98/1/2 102/1/2
f 103/1/2 104/1/2 105/1/2
f 105/1/2 104/1/2 106/1/2
f 109/1/3 108/1/3 107/1/3
f 110/1/3 108/1/3 109/1/3
f 113/1/3 112/1/3 111/1/3
f 114/1/3 112/1/3 113/1/3
f 117/1/3 116/1/3 115/1/3
f 118/1/3 116/1/3 117/1/3
f 121/1/3 120/1/3 119/1/3
f 122/1/3 120/1/3 121/1/3
f 127/2/3 124/2/3 123/2/3
f 128/4/3 125/4/3 124/4/3
f 128/2/3 124/2/3 127/2/3
f 129/4/3 125/4/3 128/4/3
f 132/2/3 127/2/3 126/2/3
f 132/2/3 128/2/3 127/2/3
f 133/2/3 128/2/3 132/2/3
f 134/6/3 129/6/3 128/6/3
f 134/2/3 128/2/3 133/2/3
f 135/6/3 129/6/3 134/6/3
f 136/3/3 133/3/3 132/3/3
f 136/2/3 132/2/3 126/2/3
f 137/2/3 135/2/3 134/2/3
f 137/3/3 133/3/3 136/3/3
f 137/2/3 134/2/3 133/2/3
f 138/2/3 135/2/3 137/2/3
f 139/2/3 135/2/3 138/2/3
f 140/2/3 136/2/3 126/2/3
f 140/2/3 137/2/3 136/2/3
f 140/2/3 138/2/3 137/2/3
f 141/2/3 138/2/3 140/2/3
f 142/6/3 139/6/3 138/6/3
f 142/2/3 138/2/3 141/2/3
f 143/6/3 139/6/3 142/6/3
f 144/1/3 131/1/3 130/1/3
f 145/1/3 131/1/3 144/1/3
f 146/2/3 142/2/3 141/2/3
f 147/4/3 143/4/3 142/4/3
f 147/2/3 142/2/3 146/2/3
f 148/4/3 143/4/3 147/4/3
f 151/1/3 150/1/3 149/1/3
f 152/1/3 150/1/3 151/1/3
f 155/1/3 154/1/3 153/1/3
f 156/1/3 154/1/3 155/1/3
f 158/1/3 157/1/3 156/1/3
f 159/1/3 157/1/3 158/1/3
f 163/1/3 161/1/3 160/1/3
f 164/1/3 161/1/3 163/1/3
f 165/1/3 163/1/3 162/1/3
f 166/1/3 163/1/3 165/1/3
f 167/2/4 168/2/4 169/2/4
f 167/2/4 169/2/4 170/2/4
f 167/2/4 170/2/4 171/2/4
f 171/2/4 170/2/4 172/2/4
f 173/1/4 174/1/4 175/1/4
f 175/1/4 174/1/4 176/1/4
f 176/1/4 177/1/4 178/1/4
f 178/1/4 177/1/4 179/1/4
f 180/1/4 181/1/4 183/1/4
f 183/1/4 181/1/4 184/1/4
f 182/1/4 183/1/4 185/1/4
f 185/1/4 183/1/4 186/1/4
f 187/1/4 188/1/4 189/1/4
f 189/1/4 188/1/4 190/1/4
f 193/1/4 194/1/4 195/1/4
f 195/1/4 194/1/4 196/1/4
f 191/5/4 192/5/4 197/5/4
f 197/5/4 192/5/4 198/5/4
f 199/1/4 200/1/4 201/1/4
f 201/1/4 200/1/4 202/1/4
f 203/1/4 204/1/4 205/1/4
f 205/1/4 204/1/4 206/1/4
f 207/1/4 208/1/4 209/1/4
f 209/1/4 208/1/4 210/1/4
f 211/1/4 212/1/4 213/1/4
f 213/1/4 212/1/4 214/1/4
f 217/2/5 216/2/5 215/2/5
f 218/2/5 216/2/5 217/2/5
f 223/2/5 220/2/5 219/2/5
f 226/2/5 222/2/5 221/2/5
f 227/3/5 225/3/5 224/3/5
f 227/2/5 224/2/5 223/2/5
f 228/2/5 226/2/5 225/2/5
f 228/3/5 225/3/5 227/3/5
f 229/2/5 227/2/5 223/2/5
f 229/2/5 223/2/5 219/2/5
f 229/2/5 228/2/5 227/2/5
f 230/2/5 226/2/5 228/2/5
f 230/2/5 228/2/5 229/2/5
f 230/2/5 222/2/5 226/2/5
f 231/5/5 230/5/5 229/5/5
f 232/5/5 230/5/5 231/5/5
f 236/1/5 234/1/5 233/1/5
f 237/1/5 234/1/5 236/1/5
f 240/1/5 236/1/5 235/1/5
f 240/1/5 238/1/5 237/1/5
f 240/1/5 237/1/5 236/1/5
f 241/1/5 238/1/5 240/1/5
f 242/1/5 238/1/5 241/1/5
f 243/1/5 238/1/5 242/1/5
f 244/1/5 238/1/5 243/1/5
f 245/1/5 238/1/5 244/1/5
f 246/1/5 238/1/5 245/1/5
f 247/1/5 238/1/5 246/1/5
f 249/1/5 240/1/5 239/1/5
f 249/1/5 241/1/5 240/1/5
f 250/1/5 248/1/5 247/1/5
f 250/1/5 247/1/5 246/1/5
f 251/1/5 249/1/5 239/1/5
f 252/1/5 248/1/5 250/1/5
f 253/1/5 251/1/5 239/1/5
f 254/1/5 251/1/5 253/1/5
f 255/1/5 251/1/5 254/1/5
f 256/1/5 248/1/5 252/1/5
f 257/1/5 248/1/5 256/1/5
f 258/1/5 248/1/5 257/1/5
f 259/1/5 255/1/5 254/1/5
f 259/1/5 257/1/5 256/1/5
f 259/1/5 256/1/5 255/1/5
f 260/1/5 257/1/5 259/1/5
f 261/1/5 257/1/5 260/1/5
f 262/1/5 257/1/5 261/1/5
f 263/1/5 261/1/5 260/1/5
f 264/1/5 261/1/5 263/1/5
f 265/1/6 266/1/6 268/1/6
f 268/1/6 266/1/6 269/1/6
f 267/1/6 268/1/6 272/1/6
f 269/1/6 270/1/6 272/1/6
f 268/1/6 269/1/6 272/1/6
f 272/1/6 270/1/6 273/1/6
f 273/1/6 270/1/6 274/1/6
f 274/1/6 270/1/6 275/1/6
f 271/1/6 272/1/6 277/1/6
f 272/1/6 273/1/6 277/1/6
f 277/1/6 273/1/6 278/1/6
f 275/1/6 276/1/6 279/1/6
f 274/1/6 275/1/6 279/1/6
f 279/1/6 276/1/6 280/1/6
f 271/1/6 277/1/6 281/1/6
f 280/1/6 276/1/6 284/1/6
f 281/1/6 282/1/6 285/1/6
f 271/1/6 281/1/6 285/1/6
f 285/1/6 282/1/6 286/1/6
f 286/1/6 282/1/6 287/1/6
f 283/1/6 284/1/6 288/1/6
f 284/1/6 276/1/6 289/1/6
f 288/1/6 284/1/6 289/1/6
f 289/1/6 276/1/6 290/1/6
f 286/1/6 287/1/6 291/1/6
f 287/1/6 288/1/6 291/1/6
f 288/1/6 289/1/6 291/1/6
f 291/1/6 289/1/6 292/1/6
f 292/1/6 289/1/6 293/1/6
f 293/1/6 289/1/6 294/1/6
f 292/1/6 293/1/6 295/1/6
f 295/1/6 293/1/6 296/1/6
f 297/1/6 298/1/6 300/1/6
f 300/1/6 298/1/6 301/1/6
f 301/1/6 298/1/6 302/1/6
f 302/1/6 298/1/6 303/1/6
f 299/1/6 300/1/6 305/1/6
f 305/1/6 300/1/6 306/1/6
f 301/1/6 302/1/6 307/1/6
f 307/1/6 302/1/6 308/1/6
f 303/1/6 304/1/6 309/1/6
f 309/1/6 304/1/6 310/1/6
f 307/1/6 308/1/6 311/1/6
f 308/1/6 309/1/6 311/1/6
f 306/1/6 307/1/6 311/1/6
f 311/1/6 309/1/6 312/1/6
f 313/1/6 314/1/6 317/1/6
f 317/1/6 314/1/6 318/1/6
f 315/1/6 316/1/6 319/1/6
f 319/1/6 316/1/6 320/1/6
